<svg width="276" height="276" viewBox="0 0 276 276" fill="none" xmlns="http://www.w3.org/2000/svg">
<path d="M138 271.354C212.672 271.354 273.206 240.736 273.206 202.967C273.206 165.197 212.672 134.579 138 134.579C63.3279 134.579 2.79422 165.197 2.79422 202.967C2.79422 240.736 63.3279 271.354 138 271.354Z" fill="#F5F5F5"/>
<path d="M60.9866 243.719C82.8607 243.719 100.593 233.481 100.593 220.852C100.593 208.223 82.8607 197.985 60.9866 197.985C39.1125 197.985 21.3801 208.223 21.3801 220.852C21.3801 233.481 39.1125 243.719 60.9866 243.719Z" fill="#E0E0E0"/>
<path d="M256.92 195.957L191.877 158.518C190.779 157.885 188.999 157.885 187.901 158.518L91.6099 214.113C90.512 214.746 90.512 215.774 91.6099 216.408L156.651 253.847C157.749 254.481 159.529 254.481 160.627 253.847L256.92 198.252C258.018 197.619 258.018 196.591 256.92 195.957Z" fill="#E0E0E0"/>
<path d="M197.142 62.9655L235.793 85.2912C238.536 86.8749 240.781 90.762 240.781 93.93V170.217L244.062 172.112V93.6319C244.062 89.1601 240.894 83.6722 237.021 81.436L196.993 58.3149C193.121 56.0788 189.952 57.9081 189.952 62.3804V140.86L193.254 142.767V65.21C193.255 62.7409 195.004 61.7313 197.142 62.9655Z" fill="#E0E0E0"/>
<path d="M167.33 233.443C167.33 229.421 170.154 224.53 173.637 222.52C175.465 221.465 177.104 221.423 178.256 222.193L182.509 224.622L173.463 239.991L169.248 237.565L169.254 237.555C168.071 236.914 167.33 235.495 167.33 233.443Z" fill="#455A64"/>
<path d="M178.052 225.064C174.569 227.075 171.745 231.966 171.745 235.988C171.745 240.01 174.568 241.64 178.052 239.629C181.535 237.618 184.359 232.727 184.359 228.705C184.359 224.683 181.535 223.053 178.052 225.064Z" fill="#37474F"/>
<path d="M180.187 231.114C180.187 229.542 179.231 228.819 178.051 229.5C176.872 230.181 175.917 232.007 175.917 233.579C175.917 235.151 176.872 235.874 178.051 235.193C179.231 234.512 180.187 232.686 180.187 231.114Z" fill="#263238"/>
<path d="M170.66 218.353C170.66 218.353 170.663 225.549 174.093 228.096C174.739 228.575 175.426 228.908 175.831 229.245C176.706 229.973 176.126 231.312 175.063 231.882C173.517 232.711 165.097 230.469 161.53 223.625L170.66 218.353Z" fill="#F0F0F0"/>
<path d="M173.929 220.23C173.929 220.23 173.931 227.427 177.361 229.973C178.008 230.453 178.695 230.785 179.099 231.122C179.974 231.85 179.394 233.19 178.331 233.759C176.785 234.588 168.365 232.346 164.798 225.502L173.929 220.23Z" fill="#FAFAFA"/>
<path d="M178.052 231.648C177.718 231.841 177.447 232.31 177.447 232.696C177.447 233.082 177.718 233.239 178.052 233.046C178.386 232.852 178.657 232.383 178.657 231.997C178.657 231.611 178.386 231.455 178.052 231.648Z" fill="#263238"/>
<path d="M235.8 193.912C235.8 189.89 238.624 184.999 242.107 182.989C243.935 181.934 245.574 181.892 246.726 182.662L250.979 185.091L241.934 200.46L237.718 198.035L237.724 198.024C236.541 197.383 235.8 195.964 235.8 193.912Z" fill="#455A64"/>
<path d="M246.522 185.533C243.039 187.544 240.215 192.434 240.215 196.456C240.215 200.478 243.039 202.108 246.522 200.097C250.005 198.086 252.829 193.196 252.829 189.174C252.829 185.152 250.005 183.522 246.522 185.533Z" fill="#37474F"/>
<path d="M248.657 191.583C248.657 190.011 247.701 189.288 246.522 189.969C245.342 190.649 244.387 192.476 244.387 194.048C244.387 195.62 245.342 196.343 246.522 195.662C247.701 194.981 248.657 193.155 248.657 191.583Z" fill="#263238"/>
<path d="M239.13 178.822C239.13 178.822 239.133 186.018 242.563 188.565C243.21 189.045 243.896 189.377 244.301 189.714C245.176 190.442 244.596 191.781 243.533 192.351C241.987 193.18 233.567 190.938 230 184.094L239.13 178.822Z" fill="#F0F0F0"/>
<path d="M242.399 180.699C242.399 180.699 242.401 187.896 245.832 190.442C246.478 190.922 247.165 191.254 247.569 191.591C248.444 192.32 247.865 193.659 246.801 194.228C245.255 195.057 236.835 192.815 233.268 185.971L242.399 180.699Z" fill="#FAFAFA"/>
<path d="M246.522 192.116C246.188 192.31 245.917 192.779 245.917 193.165C245.917 193.551 246.188 193.707 246.522 193.514C246.856 193.321 247.127 192.852 247.127 192.466C247.127 192.08 246.856 191.924 246.522 192.116Z" fill="#263238"/>
<path d="M247.366 174.018L186.65 138.953L87.4485 196.227L148.164 231.292L247.366 174.018Z" fill="#455A64"/>
<path d="M247.366 174.018L247.365 177.832L148.163 235.106V231.292L247.366 174.018Z" fill="#37474F"/>
<path d="M87.4484 196.227L87.4478 200.042L148.163 235.106V231.292L87.4484 196.227Z" fill="#263238"/>
<path opacity="0.1" d="M238.541 174.183L186.463 204.262L133.353 173.639L185.571 143.638L238.541 174.183Z" fill="black"/>
<path d="M236.769 138.419L189.077 110.836L138.673 140.008L186.366 167.591L236.769 138.419Z" fill="#C9C3EE"/>
<path opacity="0.7" d="M236.769 138.419L189.077 110.836L138.673 140.008L186.366 167.591L236.769 138.419Z" fill="white"/>
<path d="M186.366 200.931L236.769 171.758V138.418L186.366 167.591L186.366 200.931Z" fill="#C9C3EE"/>
<path opacity="0.6" d="M186.366 200.931L236.769 171.758V138.418L186.366 167.591L186.366 200.931Z" fill="white"/>
<path d="M191.929 189.872C191.774 189.872 191.628 189.834 191.495 189.757C191.151 189.558 190.953 189.121 190.953 188.559V185.027C190.953 185.024 190.953 185.022 190.953 185.019V184.758L191.134 184.79L193.904 183.164V187.111C193.904 188.115 193.304 189.248 192.54 189.69C192.332 189.81 192.123 189.872 191.929 189.872ZM191.398 185.288V188.559C191.398 188.958 191.515 189.255 191.717 189.372C191.919 189.487 192.155 189.398 192.318 189.306C192.937 188.947 193.46 187.943 193.46 187.111V186.822H192.435L192.232 185.437L191.398 185.288ZM192.819 186.378H193.459V183.939L191.807 184.91L192.625 185.055L192.819 186.378Z" fill="#455A64"/>
<path d="M192.429 192.688C192.306 192.688 192.207 192.588 192.207 192.466V189.498C192.207 189.376 192.306 189.276 192.429 189.276C192.551 189.276 192.651 189.376 192.651 189.498V192.466C192.651 192.588 192.551 192.688 192.429 192.688Z" fill="#455A64"/>
<path d="M191.139 193.432C191.063 193.432 190.987 193.393 190.947 193.321C190.885 193.214 190.921 193.079 191.028 193.018L193.608 191.529C193.712 191.466 193.85 191.502 193.911 191.61C193.972 191.717 193.936 191.852 193.83 191.913L191.25 193.403C191.215 193.422 191.177 193.432 191.139 193.432Z" fill="#455A64"/>
<path d="M200.329 188.321C200.242 188.321 200.16 188.3 200.086 188.259C199.917 188.162 199.82 187.968 199.82 187.725V187.116C199.82 186.993 199.92 186.894 200.042 186.894C200.165 186.894 200.264 186.993 200.264 187.116V187.725C200.264 187.816 200.289 187.863 200.306 187.874C200.324 187.883 200.376 187.88 200.451 187.836C200.646 187.72 200.864 187.279 200.864 186.832V182.885C200.864 182.763 200.963 182.663 201.086 182.663C201.208 182.663 201.308 182.763 201.308 182.885V186.832C201.308 187.41 201.037 188.006 200.677 188.218C200.56 188.287 200.441 188.321 200.329 188.321Z" fill="#455A64"/>
<path d="M197.99 184.872V184.487C197.99 182.677 199.263 180.469 200.83 179.565C201.631 179.104 202.397 179.035 202.983 179.374C203.57 179.713 203.893 180.409 203.893 181.333V181.462L197.99 184.872ZM202.161 179.606C201.825 179.606 201.448 179.722 201.052 179.95C199.722 180.718 198.619 182.507 198.455 184.09L203.447 181.207C203.421 180.512 203.18 180.001 202.761 179.759C202.584 179.656 202.381 179.606 202.161 179.606Z" fill="#455A64"/>
<path d="M208.305 183.774C208.182 183.774 208.083 183.674 208.083 183.552V175.994C208.083 175.871 208.182 175.772 208.305 175.772C208.427 175.772 208.527 175.871 208.527 175.994V183.552C208.527 183.674 208.427 183.774 208.305 183.774Z" fill="#455A64"/>
<path d="M207.656 177.718C207.626 177.718 207.597 177.711 207.568 177.699C207.455 177.65 207.404 177.519 207.453 177.407L208.243 175.581L209.125 176.599C209.206 176.692 209.195 176.832 209.103 176.912C209.008 176.992 208.869 176.982 208.789 176.89L208.37 176.406L207.86 177.583C207.824 177.667 207.741 177.718 207.656 177.718Z" fill="#455A64"/>
<path d="M210.359 182.603C210.237 182.603 210.138 182.503 210.138 182.381V174.822C210.138 174.7 210.237 174.6 210.359 174.6C210.482 174.6 210.581 174.7 210.581 174.822V182.381C210.581 182.503 210.482 182.603 210.359 182.603Z" fill="#455A64"/>
<path d="M209.709 176.546C209.679 176.546 209.65 176.541 209.621 176.528C209.508 176.479 209.457 176.349 209.506 176.236L210.296 174.41L211.178 175.428C211.259 175.521 211.248 175.661 211.155 175.741C211.061 175.821 210.922 175.812 210.842 175.719L210.423 175.235L209.913 176.413C209.877 176.496 209.795 176.546 209.709 176.546Z" fill="#455A64"/>
<path d="M186.366 200.931L138.673 173.348V140.008L186.366 167.591V200.931Z" fill="#C9C3EE"/>
<path opacity="0.5" d="M186.366 200.931L138.673 173.348V140.008L186.366 167.591V200.931Z" fill="white"/>
<path d="M158.696 156.634L161.96 158.518V153.453L158.696 151.568V156.634Z" fill="#37474F"/>
<path d="M161.96 153.453L212.364 124.281L209.099 122.396L158.696 151.568L161.96 153.453Z" fill="#455A64"/>
<path d="M160.176 150.707L163.438 152.594L165.259 151.544L161.993 149.655L160.176 150.707Z" fill="#37474F"/>
<path d="M212.491 128.532L199.139 136.224C198.897 136.364 198.963 136.627 199.285 136.813L214.359 145.517C214.681 145.703 215.138 145.74 215.379 145.601L228.735 137.905C228.977 137.765 228.911 137.502 228.589 137.316L213.512 128.616C213.19 128.43 212.733 128.392 212.491 128.532Z" fill="#FAFAFA"/>
<path d="M219.235 141.621C219.33 141.621 219.423 141.571 219.474 141.483C219.551 141.351 219.506 141.182 219.373 141.106L206.859 133.881C206.727 133.804 206.558 133.85 206.482 133.982C206.405 134.114 206.45 134.283 206.583 134.359L219.097 141.584C219.141 141.61 219.189 141.621 219.235 141.621Z" fill="#E0E0E0"/>
<path d="M217.846 142.417C217.941 142.417 218.034 142.367 218.085 142.279C218.161 142.147 218.116 141.978 217.984 141.902L205.469 134.677C205.338 134.6 205.168 134.645 205.092 134.778C205.016 134.91 205.061 135.079 205.193 135.155L217.708 142.38C217.751 142.405 217.799 142.417 217.846 142.417Z" fill="#E0E0E0"/>
<path d="M216.456 143.213C216.551 143.213 216.645 143.163 216.695 143.075C216.772 142.943 216.727 142.774 216.594 142.698L204.08 135.473C203.949 135.396 203.779 135.441 203.703 135.574C203.626 135.706 203.671 135.875 203.804 135.951L216.318 143.176C216.362 143.202 216.409 143.213 216.456 143.213Z" fill="#E0E0E0"/>
<path d="M215.067 144.01C215.162 144.01 215.255 143.96 215.306 143.872C215.383 143.74 215.337 143.571 215.205 143.495L202.691 136.269C202.559 136.192 202.39 136.238 202.314 136.371C202.237 136.502 202.282 136.671 202.415 136.748L214.929 143.973C214.973 143.997 215.02 144.01 215.067 144.01Z" fill="#E0E0E0"/>
<path d="M227.471 137.557L226.985 137.276L221.284 140.567L221.771 140.848L227.471 137.557Z" fill="#455A64"/>
<path d="M225.491 136.413L224.646 135.932L218.945 139.223L219.79 139.704L225.491 136.413Z" fill="#455A64"/>
<path d="M223.51 135.269L223.023 134.988L217.322 138.279L217.809 138.56L223.51 135.269Z" fill="#455A64"/>
<path d="M222.026 134.4L221.042 133.843L215.341 137.135L216.325 137.692L222.026 134.4Z" fill="#455A64"/>
<path d="M219.548 132.981L219.061 132.699L213.361 135.991L213.847 136.272L219.548 132.981Z" fill="#455A64"/>
<path d="M218.133 132.15L217.08 131.555L211.38 134.847L212.432 135.441L218.133 132.15Z" fill="#455A64"/>
<path d="M215.586 130.692L215.099 130.411L209.398 133.703L209.885 133.984L215.586 130.692Z" fill="#455A64"/>
<path d="M214.462 130.036L214.218 129.896L208.518 133.187L208.761 133.328L214.462 130.036Z" fill="#455A64"/>
<path d="M216.461 131.23L216.218 131.09L210.517 134.381L210.76 134.521L216.461 131.23Z" fill="#455A64"/>
<path d="M220.474 133.522L220.23 133.381L214.53 136.673L214.773 136.813L220.474 133.522Z" fill="#455A64"/>
<path d="M222.655 134.786L222.411 134.646L216.711 137.938L216.954 138.078L222.655 134.786Z" fill="#455A64"/>
<path d="M224.199 135.708L223.955 135.567L218.255 138.859L218.498 138.999L224.199 135.708Z" fill="#455A64"/>
<path d="M226.369 136.913L226.125 136.772L220.425 140.064L220.668 140.204L226.369 136.913Z" fill="#455A64"/>
<path d="M213.605 129.548L213.118 129.267L207.418 132.559L207.904 132.84L213.605 129.548Z" fill="#455A64"/>
<path d="M221.283 168.443L221.282 176.805C221.282 177.126 221.509 177.257 221.788 177.096L234.842 169.56C235.121 169.398 235.347 169.007 235.347 168.685L235.346 160.318C235.346 159.996 235.12 159.865 234.841 160.026L221.788 167.568C221.509 167.729 221.283 168.12 221.283 168.443Z" fill="#FAFAFA"/>
<path d="M234.539 161.224L234.117 161.468V169.069L234.539 168.825V161.224Z" fill="#455A64"/>
<path d="M232.823 162.214L232.096 162.641L232.097 170.243L232.823 169.816V162.214Z" fill="#455A64"/>
<path d="M231.107 163.204L230.685 163.448L230.686 171.049L231.107 170.806V163.204Z" fill="#455A64"/>
<path d="M229.813 163.938L228.97 164.438V172.039L229.813 171.539V163.938Z" fill="#455A64"/>
<path d="M227.675 165.185L227.253 165.428L227.254 173.029L227.675 172.786V165.185Z" fill="#455A64"/>
<path d="M226.44 165.882L225.538 166.419V174.02L226.44 173.483V165.882Z" fill="#455A64"/>
<path d="M224.243 167.165L223.822 167.408V175.01L224.244 174.766L224.243 167.165Z" fill="#455A64"/>
<path d="M223.265 167.722L223.054 167.844L223.054 175.445L223.265 175.323V167.722Z" fill="#455A64"/>
<path d="M225.026 166.751L224.815 166.873V174.474L225.026 174.352V166.751Z" fill="#455A64"/>
<path d="M228.482 164.727L228.271 164.848V172.449L228.482 172.328V164.727Z" fill="#455A64"/>
<path d="M230.375 163.64L230.164 163.762V171.363L230.375 171.241V163.64Z" fill="#455A64"/>
<path d="M231.735 162.89L231.524 163.012L231.524 170.613L231.735 170.491V162.89Z" fill="#455A64"/>
<path d="M233.578 161.77L233.367 161.892V169.493L233.578 169.371V161.77Z" fill="#455A64"/>
<path d="M222.528 168.155L222.106 168.399L222.107 176L222.528 175.757V168.155Z" fill="#455A64"/>
<path opacity="0.1" d="M233.526 137.715L187.256 164.457L138.309 136.138L184.58 109.395L233.526 137.715Z" fill="black"/>
<path d="M137.034 99.9247L181.423 74.2484L231.654 103.312L187.264 128.988L137.034 99.9247Z" fill="#C9C3EE"/>
<path opacity="0.3" d="M137.034 99.9247L181.423 74.2484L231.654 103.312L187.264 128.988L137.034 99.9247Z" fill="white"/>
<path d="M158.31 90.8294L171.663 98.5215C171.904 98.6612 171.839 98.9245 171.517 99.1105L156.443 107.814C156.121 108 155.664 108.037 155.422 107.898L142.067 100.203C141.825 100.063 141.891 99.8 142.212 99.6139L157.289 90.9139C157.612 90.7273 158.069 90.6897 158.31 90.8294Z" fill="#FAFAFA"/>
<path d="M151.566 103.919C151.472 103.919 151.378 103.869 151.327 103.781C151.251 103.649 151.296 103.48 151.428 103.404L163.943 96.1788C164.074 96.1016 164.244 96.1474 164.32 96.2799C164.397 96.4118 164.351 96.5807 164.219 96.6569L151.704 103.882C151.661 103.907 151.613 103.919 151.566 103.919Z" fill="#E0E0E0"/>
<path d="M152.956 104.714C152.862 104.714 152.768 104.665 152.717 104.576C152.641 104.444 152.686 104.276 152.818 104.199L165.333 96.9743C165.464 96.8975 165.634 96.9423 165.71 97.0753C165.787 97.2072 165.741 97.3761 165.609 97.4523L153.094 104.677C153.051 104.703 153.003 104.714 152.956 104.714Z" fill="#E0E0E0"/>
<path d="M154.345 105.511C154.25 105.511 154.157 105.461 154.106 105.373C154.03 105.241 154.075 105.072 154.207 104.996L166.722 97.7708C166.853 97.6941 167.023 97.7393 167.099 97.8718C167.175 98.0038 167.13 98.1727 166.998 98.2488L154.483 105.474C154.44 105.499 154.392 105.511 154.345 105.511Z" fill="#E0E0E0"/>
<path d="M155.735 106.307C155.64 106.307 155.547 106.257 155.496 106.169C155.419 106.037 155.465 105.868 155.597 105.792L168.112 98.5668C168.243 98.4895 168.412 98.5353 168.489 98.6678C168.565 98.7997 168.52 98.9686 168.388 99.0448L155.873 106.27C155.83 106.295 155.782 106.307 155.735 106.307Z" fill="#E0E0E0"/>
<path d="M143.33 99.8541L143.817 99.5736L149.517 102.865L149.031 103.146L143.33 99.8541Z" fill="#455A64"/>
<path d="M145.311 98.7103L146.156 98.229L151.857 101.521L151.012 102.002L145.311 98.7103Z" fill="#455A64"/>
<path d="M147.292 97.566L147.779 97.285L153.48 100.577L152.993 100.858L147.292 97.566Z" fill="#455A64"/>
<path d="M148.776 96.6977L149.76 96.1407L155.46 99.4329L154.477 99.9893L148.776 96.6977Z" fill="#455A64"/>
<path d="M151.254 95.278L151.741 94.997L157.441 98.2886L156.955 98.5695L151.254 95.278Z" fill="#455A64"/>
<path d="M152.669 94.4472L153.722 93.8527L159.423 97.1443L158.369 97.7388L152.669 94.4472Z" fill="#455A64"/>
<path d="M155.216 92.9899L155.703 92.709L161.403 96.0005L160.917 96.2809L155.216 92.9899Z" fill="#455A64"/>
<path d="M156.34 92.3336L156.584 92.1928L162.284 95.485L162.041 95.6252L156.34 92.3336Z" fill="#455A64"/>
<path d="M154.341 93.5276L154.584 93.3868L160.285 96.6784L160.041 96.8192L154.341 93.5276Z" fill="#455A64"/>
<path d="M150.328 95.8189L150.571 95.6787L156.272 98.9703L156.029 99.1105L150.328 95.8189Z" fill="#455A64"/>
<path d="M148.147 97.0841L148.391 96.9434L154.091 100.235L153.848 100.375L148.147 97.0841Z" fill="#455A64"/>
<path d="M146.603 98.0054L146.846 97.8646L152.547 101.156L152.304 101.296L146.603 98.0054Z" fill="#455A64"/>
<path d="M144.433 99.2104L144.676 99.0697L150.377 102.361L150.134 102.501L144.433 99.2104Z" fill="#455A64"/>
<path d="M157.197 91.8456L157.684 91.5647L163.384 94.8562L162.897 95.1372L157.197 91.8456Z" fill="#455A64"/>
<path d="M187.264 162.328L137.033 133.264V99.9247L187.264 128.988V162.328Z" fill="#C9C3EE"/>
<path d="M187.264 162.328L231.654 136.651V103.312L187.264 128.988L187.264 162.328Z" fill="#C9C3EE"/>
<path opacity="0.1" d="M187.264 162.328L231.654 136.651V103.312L187.264 128.988L187.264 162.328Z" fill="black"/>
<path d="M211.631 119.937L208.367 121.823V116.756L211.631 114.872V119.937Z" fill="#37474F"/>
<path d="M208.367 116.757L158.136 87.6941L161.4 85.809L211.631 114.872L208.367 116.757Z" fill="#455A64"/>
<path d="M168.854 146.378C168.201 146.001 167.688 145.032 167.688 144.175V140.801L170.055 142.191L170.209 142.164V142.387C170.209 142.389 170.209 142.391 170.209 142.393V145.412C170.209 145.893 170.04 146.267 169.747 146.436C169.633 146.501 169.508 146.534 169.376 146.534C169.21 146.534 169.032 146.482 168.854 146.378ZM169.117 142.744L168.944 143.927H168.068V144.175C168.068 144.886 168.515 145.744 169.044 146.05C169.184 146.129 169.385 146.205 169.557 146.107C169.731 146.007 169.831 145.753 169.831 145.412V142.616L169.117 142.744ZM168.781 142.418L169.48 142.293L168.068 141.463V143.548H168.615L168.781 142.418Z" fill="#455A64"/>
<path d="M168.949 148.941C169.054 148.941 169.139 148.856 169.139 148.751V146.215C169.139 146.11 169.054 146.025 168.949 146.025C168.844 146.025 168.759 146.11 168.759 146.215V148.751C168.759 148.856 168.844 148.941 168.949 148.941Z" fill="#455A64"/>
<path d="M170.051 149.576C170.116 149.576 170.181 149.542 170.215 149.481C170.268 149.39 170.237 149.275 170.146 149.222L167.942 147.95C167.853 147.896 167.735 147.926 167.683 148.019C167.63 148.11 167.661 148.226 167.752 148.278L169.956 149.551C169.986 149.568 170.019 149.576 170.051 149.576Z" fill="#455A64"/>
<path d="M176.658 153.496C176.732 153.496 176.802 153.478 176.865 153.442C177.01 153.359 177.093 153.193 177.093 152.986V152.466C177.093 152.361 177.008 152.276 176.903 152.276C176.798 152.276 176.713 152.361 176.713 152.466V152.986C176.713 153.064 176.691 153.104 176.676 153.113C176.662 153.121 176.617 153.118 176.553 153.081C176.386 152.982 176.2 152.605 176.2 152.222V148.85C176.2 148.745 176.115 148.66 176.01 148.66C175.905 148.66 175.82 148.745 175.82 148.85V152.222C175.82 152.716 176.052 153.226 176.359 153.407C176.46 153.466 176.562 153.496 176.658 153.496Z" fill="#455A64"/>
<path d="M173.611 147.633V147.523C173.611 146.733 173.887 146.139 174.389 145.849C174.89 145.559 175.544 145.618 176.229 146.012C177.568 146.785 178.656 148.672 178.656 150.219V150.548L173.611 147.633ZM174.579 146.178C174.222 146.384 174.015 146.822 173.993 147.415L178.26 149.88C178.119 148.527 177.177 146.998 176.04 146.342C175.702 146.146 175.379 146.048 175.093 146.048C174.903 146.047 174.731 146.09 174.579 146.178Z" fill="#455A64"/>
<path d="M184.289 157.753C184.393 157.753 184.478 157.668 184.478 157.563V151.104C184.478 150.999 184.393 150.914 184.289 150.914C184.184 150.914 184.099 150.999 184.099 151.104V157.563C184.099 157.668 184.184 157.753 184.289 157.753Z" fill="#455A64"/>
<path d="M184.843 152.577C184.869 152.577 184.894 152.572 184.918 152.561C185.016 152.52 185.059 152.408 185.017 152.312L184.342 150.751L183.588 151.622C183.519 151.701 183.528 151.82 183.607 151.889C183.688 151.957 183.807 151.949 183.875 151.87L184.233 151.456L184.669 152.462C184.7 152.534 184.77 152.577 184.843 152.577Z" fill="#455A64"/>
<path d="M182.533 156.753C182.637 156.753 182.722 156.668 182.722 156.563V150.103C182.722 149.998 182.637 149.913 182.533 149.913C182.428 149.913 182.343 149.998 182.343 150.103V156.563C182.343 156.668 182.428 156.753 182.533 156.753Z" fill="#455A64"/>
<path d="M183.088 151.576C183.114 151.576 183.138 151.571 183.163 151.56C183.26 151.519 183.303 151.407 183.262 151.311L182.586 149.751L181.833 150.621C181.764 150.7 181.773 150.82 181.851 150.888C181.933 150.956 182.051 150.948 182.12 150.869L182.477 150.455L182.913 151.462C182.945 151.533 183.015 151.576 183.088 151.576Z" fill="#455A64"/>
<path d="M152.373 130.246L152.374 138.607C152.374 138.93 152.147 139.06 151.868 138.899L138.814 131.362C138.535 131.201 138.309 130.81 138.309 130.487L138.31 122.121C138.31 121.799 138.536 121.668 138.815 121.829L151.868 129.371C152.147 129.532 152.373 129.924 152.373 130.246Z" fill="#FAFAFA"/>
<path d="M139.118 123.027L139.539 123.27V130.871L139.118 130.628V123.027Z" fill="#455A64"/>
<path d="M140.833 124.017L141.56 124.445L141.56 132.046L140.833 131.618V124.017Z" fill="#455A64"/>
<path d="M142.549 125.008L142.971 125.251V132.852L142.549 132.609V125.008Z" fill="#455A64"/>
<path d="M143.843 125.741L144.687 126.241L144.686 133.842L143.843 133.342V125.741Z" fill="#455A64"/>
<path d="M145.981 126.988L146.403 127.231V134.832L145.981 134.589V126.988Z" fill="#455A64"/>
<path d="M147.217 127.685L148.118 128.221V135.822L147.217 135.286V127.685Z" fill="#455A64"/>
<path d="M149.413 128.968L149.834 129.212L149.834 136.813L149.413 136.569V128.968Z" fill="#455A64"/>
<path d="M150.391 129.525L150.602 129.647V137.248L150.391 137.126V129.525Z" fill="#455A64"/>
<path d="M148.63 128.554L148.841 128.676L148.841 136.277L148.63 136.155V128.554Z" fill="#455A64"/>
<path d="M145.174 126.529L145.385 126.651V134.252L145.174 134.131V126.529Z" fill="#455A64"/>
<path d="M143.282 125.443L143.492 125.565L143.492 133.166L143.282 133.045V125.443Z" fill="#455A64"/>
<path d="M141.921 124.692L142.132 124.814V132.415L141.921 132.294V124.692Z" fill="#455A64"/>
<path d="M140.078 123.574L140.289 123.695L140.289 131.296L140.078 131.175V123.574Z" fill="#455A64"/>
<path d="M151.129 129.958L151.55 130.201V137.803L151.129 137.56V129.958Z" fill="#455A64"/>
<path opacity="0.1" d="M136.239 99.4671L184.345 127.301L222.044 105.536L173.851 77.7117L136.239 99.4671Z" fill="black"/>
<path d="M134.015 84.2711L174.375 60.9695L221.462 88.155L181.102 111.457L134.015 84.2711Z" fill="#C9C3EE"/>
<path opacity="0.1" d="M134.015 84.2711L174.375 60.9695L221.462 88.155L181.102 111.457L134.015 84.2711Z" fill="black"/>
<path d="M155.291 75.1758L168.644 82.8679C168.886 83.0076 168.82 83.2709 168.498 83.4569L153.424 92.1603C153.102 92.3463 152.645 92.3838 152.403 92.2447L139.048 84.5493C138.806 84.4096 138.872 84.1463 139.193 83.9603L154.27 75.2602C154.593 75.0737 155.05 75.0361 155.291 75.1758Z" fill="#FAFAFA"/>
<path d="M148.548 88.2648C148.453 88.2648 148.359 88.2151 148.309 88.1268C148.232 87.9949 148.277 87.826 148.41 87.7498L160.924 80.5247C161.055 80.4474 161.225 80.4932 161.301 80.6257C161.378 80.7576 161.332 80.9265 161.2 81.0027L148.686 88.2278C148.642 88.2532 148.595 88.2648 148.548 88.2648Z" fill="#E0E0E0"/>
<path d="M149.937 89.0608C149.842 89.0608 149.749 89.0111 149.698 88.9228C149.621 88.7909 149.667 88.6219 149.799 88.5458L162.313 81.3206C162.444 81.2439 162.614 81.2886 162.69 81.4217C162.767 81.5536 162.722 81.7225 162.589 81.7987L150.075 89.0238C150.031 89.0486 149.984 89.0608 149.937 89.0608Z" fill="#E0E0E0"/>
<path d="M151.326 89.8568C151.231 89.8568 151.138 89.8071 151.087 89.7188C151.011 89.5868 151.056 89.4179 151.188 89.3418L163.703 82.1166C163.834 82.0399 164.004 82.0852 164.08 82.2176C164.157 82.3496 164.111 82.5185 163.979 82.5947L151.464 89.8198C151.421 89.8452 151.373 89.8568 151.326 89.8568Z" fill="#E0E0E0"/>
<path d="M152.716 90.6533C152.621 90.6533 152.528 90.6036 152.477 90.5153C152.401 90.3834 152.446 90.2145 152.578 90.1383L165.093 82.9132C165.224 82.8359 165.394 82.8817 165.47 83.0142C165.546 83.1461 165.501 83.315 165.369 83.3912L152.854 90.6163C152.811 90.6412 152.763 90.6533 152.716 90.6533Z" fill="#E0E0E0"/>
<path d="M140.311 84.2004L140.798 83.9194L146.499 87.211L146.012 87.492L140.311 84.2004Z" fill="#455A64"/>
<path d="M142.292 83.0567L143.137 82.5753L148.837 85.8669L147.993 86.3477L142.292 83.0567Z" fill="#455A64"/>
<path d="M144.273 81.9124L144.76 81.6314L150.461 84.923L149.974 85.204L144.273 81.9124Z" fill="#455A64"/>
<path d="M145.757 81.0441L146.741 80.4871L152.441 83.7787L151.458 84.3357L145.757 81.0441Z" fill="#455A64"/>
<path d="M148.235 79.6243L148.721 79.3428L154.423 82.6349L153.936 82.9159L148.235 79.6243Z" fill="#455A64"/>
<path d="M149.649 78.7936L150.703 78.1991L156.403 81.4907L155.35 82.0852L149.649 78.7936Z" fill="#455A64"/>
<path d="M152.197 77.3357L152.684 77.0548L158.384 80.3464L157.897 80.6273L152.197 77.3357Z" fill="#455A64"/>
<path d="M153.321 76.68L153.565 76.5392L159.265 79.8308L159.022 79.9716L153.321 76.68Z" fill="#455A64"/>
<path d="M151.322 77.8739L151.565 77.7332L157.266 81.0248L157.022 81.165L151.322 77.8739Z" fill="#455A64"/>
<path d="M147.309 80.1653L147.552 80.0251L153.253 83.3167L153.01 83.4569L147.309 80.1653Z" fill="#455A64"/>
<path d="M145.129 81.4299L145.372 81.2897L151.072 84.5813L150.829 84.7215L145.129 81.4299Z" fill="#455A64"/>
<path d="M143.584 82.3512L143.827 82.211L149.528 85.5026L149.285 85.6428L143.584 82.3512Z" fill="#455A64"/>
<path d="M141.414 83.5568L141.658 83.416L147.358 86.7076L147.115 86.8478L141.414 83.5568Z" fill="#455A64"/>
<path d="M154.178 76.192L154.664 75.911L160.365 79.2026L159.879 79.4836L154.178 76.192Z" fill="#455A64"/>
<path d="M181.101 126.991L134.015 99.8055L134.014 84.2711L181.101 111.457V126.991Z" fill="#C9C3EE"/>
<g opacity="0.2">
<path d="M181.101 126.991L134.015 99.8055L134.014 84.2711L181.101 111.457V126.991Z" fill="black"/>
</g>
<path d="M181.102 126.991L221.462 103.689V88.155L181.102 111.457V126.991Z" fill="#C9C3EE"/>
<path opacity="0.3" d="M181.102 126.991L221.462 103.689V88.155L181.102 111.457V126.991Z" fill="black"/>
<path d="M205.469 102.406L202.204 104.291V99.2253L205.469 97.3402V102.406Z" fill="#37474F"/>
<path d="M202.204 99.2259L155.117 72.0404L158.382 70.1548L205.469 97.3402L202.204 99.2259Z" fill="#455A64"/>
<path d="M162.692 111.042C162.038 110.664 161.526 109.696 161.526 108.838V105.465L163.893 106.855L164.047 106.827V107.051C164.047 107.053 164.047 107.055 164.047 107.057V110.075C164.047 110.556 163.878 110.93 163.584 111.1C163.471 111.165 163.346 111.198 163.213 111.198C163.048 111.198 162.87 111.145 162.692 111.042ZM162.955 107.408L162.782 108.591H161.906V108.838C161.906 109.549 162.353 110.408 162.882 110.714C163.022 110.793 163.223 110.869 163.396 110.77C163.569 110.67 163.669 110.417 163.669 110.075V107.28L162.955 107.408ZM162.619 107.081L163.318 106.957L161.906 106.127V108.211H162.453L162.619 107.081Z" fill="#455A64"/>
<path d="M162.787 113.604C162.892 113.604 162.977 113.519 162.977 113.414V110.879C162.977 110.774 162.892 110.689 162.787 110.689C162.682 110.689 162.597 110.774 162.597 110.879V113.414C162.597 113.519 162.682 113.604 162.787 113.604Z" fill="#455A64"/>
<path d="M163.889 114.24C163.954 114.24 164.019 114.206 164.053 114.145C164.106 114.054 164.075 113.938 163.984 113.886L161.78 112.614C161.691 112.559 161.573 112.59 161.521 112.683C161.468 112.774 161.499 112.889 161.59 112.941L163.794 114.214C163.824 114.232 163.856 114.24 163.889 114.24Z" fill="#455A64"/>
<path d="M170.496 118.159C170.57 118.159 170.64 118.142 170.703 118.106C170.848 118.023 170.931 117.857 170.931 117.649V117.129C170.931 117.025 170.846 116.94 170.741 116.94C170.636 116.94 170.551 117.025 170.551 117.129V117.649C170.551 117.727 170.529 117.768 170.514 117.777C170.5 117.785 170.455 117.782 170.391 117.744C170.224 117.646 170.038 117.269 170.038 116.886V113.513C170.038 113.408 169.953 113.323 169.848 113.323C169.743 113.323 169.658 113.408 169.658 113.513V116.886C169.658 117.38 169.89 117.89 170.197 118.071C170.298 118.13 170.4 118.159 170.496 118.159Z" fill="#455A64"/>
<path d="M167.449 112.297V112.187C167.449 111.397 167.725 110.802 168.228 110.513C168.728 110.223 169.382 110.281 170.067 110.676C171.406 111.449 172.494 113.336 172.494 114.882V115.212L167.449 112.297ZM168.417 110.842C168.06 111.048 167.853 111.485 167.831 112.079L172.098 114.543C171.957 113.191 171.015 111.662 169.878 111.006C169.54 110.81 169.217 110.711 168.931 110.711C168.741 110.711 168.569 110.754 168.417 110.842Z" fill="#455A64"/>
<path d="M178.127 122.417C178.231 122.417 178.316 122.332 178.316 122.227V115.768C178.316 115.663 178.231 115.578 178.127 115.578C178.022 115.578 177.937 115.663 177.937 115.768V122.227C177.937 122.332 178.022 122.417 178.127 122.417Z" fill="#455A64"/>
<path d="M178.681 117.241C178.707 117.241 178.731 117.236 178.756 117.225C178.853 117.184 178.896 117.071 178.855 116.975L178.18 115.415L177.426 116.285C177.357 116.364 177.366 116.484 177.445 116.553C177.526 116.621 177.645 116.613 177.713 116.533L178.071 116.12L178.507 117.126C178.537 117.198 178.608 117.241 178.681 117.241Z" fill="#455A64"/>
<path d="M176.37 121.416C176.475 121.416 176.56 121.331 176.56 121.226V114.767C176.56 114.662 176.475 114.577 176.37 114.577C176.265 114.577 176.18 114.662 176.18 114.767V121.226C176.18 121.331 176.265 121.416 176.37 121.416Z" fill="#455A64"/>
<path d="M176.926 116.24C176.952 116.24 176.976 116.235 177.001 116.224C177.098 116.182 177.141 116.07 177.1 115.974L176.425 114.414L175.671 115.284C175.602 115.363 175.611 115.483 175.69 115.551C175.771 115.619 175.89 115.611 175.958 115.532L176.316 115.119L176.752 116.125C176.782 116.197 176.853 116.24 176.926 116.24Z" fill="#455A64"/>
<path d="M149.354 96.7871L149.355 105.149C149.355 105.471 149.129 105.601 148.85 105.44L135.795 97.9038C135.517 97.7427 135.29 97.3513 135.29 97.0289L135.291 88.6622C135.291 88.3404 135.517 88.2096 135.796 88.3708L148.85 95.9122C149.128 96.0734 149.354 96.4648 149.354 96.7871Z" fill="#FAFAFA"/>
<path d="M136.099 89.5681L136.521 89.8115L136.52 97.4131L136.099 97.1697V89.5681Z" fill="#455A64"/>
<path d="M137.815 90.5584L138.541 90.9856L138.541 98.5872L137.815 98.1594V90.5584Z" fill="#455A64"/>
<path d="M139.531 91.5487L139.952 91.7921L139.952 99.3931L139.531 99.1497V91.5487Z" fill="#455A64"/>
<path d="M140.825 92.2823L141.668 92.7824V100.383L140.825 99.8833V92.2823Z" fill="#455A64"/>
<path d="M142.962 93.5287L143.384 93.7721L143.384 101.374L142.962 101.13L142.962 93.5287Z" fill="#455A64"/>
<path d="M144.198 94.2264L145.1 94.7624L145.099 102.363L144.198 101.827V94.2264Z" fill="#455A64"/>
<path d="M146.394 95.5093L146.815 95.7527V103.354L146.394 103.11L146.394 95.5093Z" fill="#455A64"/>
<path d="M147.373 96.0662L147.584 96.1882L147.583 103.789L147.372 103.667L147.373 96.0662Z" fill="#455A64"/>
<path d="M145.612 95.0953L145.822 95.2172V102.818L145.612 102.696V95.0953Z" fill="#455A64"/>
<path d="M142.155 93.0711L142.366 93.1925L142.366 100.794L142.155 100.672V93.0711Z" fill="#455A64"/>
<path d="M140.263 91.9847L140.474 92.1062L140.473 99.7072L140.263 99.5858V91.9847Z" fill="#455A64"/>
<path d="M138.903 91.234L139.114 91.3555L139.113 98.9565L138.903 98.8351V91.234Z" fill="#455A64"/>
<path d="M137.059 90.1146L137.27 90.2366V97.8376L137.059 97.7156V90.1146Z" fill="#455A64"/>
<path d="M148.11 96.4995L148.531 96.743V104.344L148.11 104.101V96.4995Z" fill="#455A64"/>
<path opacity="0.1" d="M156.509 190.31L119.629 211.576L92.025 195.619L128.989 174.4L156.509 190.31Z" fill="black"/>
<path d="M95.3928 127.647L129.026 108.228L153.691 122.468L120.057 141.887L95.3928 127.647Z" fill="#C9C3EE"/>
<path opacity="0.1" d="M95.3928 127.647L129.026 108.228L153.691 122.468L120.057 141.887L95.3928 127.647Z" fill="black"/>
<path d="M128.699 111.019L118.375 116.966C118.189 117.074 118.239 117.278 118.488 117.421L130.142 124.15C130.391 124.294 130.744 124.323 130.931 124.215L141.257 118.266C141.443 118.158 141.393 117.954 141.144 117.811L129.488 111.084C129.239 110.94 128.885 110.911 128.699 111.019Z" fill="#FAFAFA"/>
<path d="M133.913 121.139C133.986 121.139 134.059 121.101 134.098 121.033C134.157 120.931 134.122 120.8 134.02 120.741L124.345 115.155C124.243 115.095 124.112 115.131 124.053 115.233C123.994 115.335 124.029 115.465 124.131 115.524L133.806 121.11C133.84 121.13 133.877 121.139 133.913 121.139Z" fill="#E0E0E0"/>
<path d="M132.838 121.754C132.912 121.754 132.984 121.715 133.023 121.648C133.082 121.545 133.047 121.415 132.945 121.356L123.27 115.77C123.169 115.711 123.037 115.746 122.978 115.848C122.919 115.95 122.954 116.081 123.056 116.14L132.732 121.726C132.765 121.745 132.802 121.754 132.838 121.754Z" fill="#E0E0E0"/>
<path d="M131.765 122.37C131.838 122.37 131.91 122.331 131.949 122.263C132.008 122.161 131.973 122.031 131.871 121.972L122.196 116.385C122.095 116.326 121.963 116.361 121.904 116.463C121.845 116.565 121.88 116.696 121.982 116.755L131.657 122.34C131.691 122.36 131.728 122.37 131.765 122.37Z" fill="#E0E0E0"/>
<path d="M130.69 122.985C130.763 122.985 130.836 122.946 130.875 122.879C130.934 122.776 130.899 122.646 130.797 122.587L121.121 117.001C121.02 116.942 120.889 116.977 120.83 117.079C120.771 117.181 120.806 117.312 120.908 117.371L130.583 122.956C130.617 122.976 130.653 122.985 130.69 122.985Z" fill="#E0E0E0"/>
<path d="M140.281 117.997L139.904 117.779L135.497 120.324L135.873 120.541L140.281 117.997Z" fill="#455A64"/>
<path d="M138.749 117.112L138.096 116.74L133.688 119.285L134.342 119.656L138.749 117.112Z" fill="#455A64"/>
<path d="M137.218 116.227L136.841 116.01L132.434 118.555L132.81 118.772L137.218 116.227Z" fill="#455A64"/>
<path d="M136.07 115.556L135.31 115.126L130.902 117.67L131.663 118.101L136.07 115.556Z" fill="#455A64"/>
<path d="M134.155 114.458L133.778 114.241L129.371 116.786L129.747 117.003L134.155 114.458Z" fill="#455A64"/>
<path d="M133.061 113.816L132.246 113.357L127.839 115.901L128.653 116.361L133.061 113.816Z" fill="#455A64"/>
<path d="M131.091 112.689L130.715 112.472L126.308 115.017L126.684 115.234L131.091 112.689Z" fill="#455A64"/>
<path d="M130.222 112.182L130.034 112.073L125.627 114.618L125.815 114.727L130.222 112.182Z" fill="#455A64"/>
<path d="M131.768 113.105L131.58 112.997L127.173 115.541L127.36 115.65L131.768 113.105Z" fill="#455A64"/>
<path d="M134.87 114.877L134.682 114.768L130.275 117.313L130.463 117.421L134.87 114.877Z" fill="#455A64"/>
<path d="M136.556 115.855L136.368 115.746L131.961 118.291L132.149 118.4L136.556 115.855Z" fill="#455A64"/>
<path d="M137.75 116.567L137.562 116.458L133.155 119.003L133.343 119.112L137.75 116.567Z" fill="#455A64"/>
<path d="M139.428 117.499L139.24 117.39L134.832 119.935L135.02 120.043L139.428 117.499Z" fill="#455A64"/>
<path d="M129.56 111.805L129.183 111.587L124.776 114.132L125.152 114.35L129.56 111.805Z" fill="#455A64"/>
<path d="M120.057 209.215L95.3928 194.975V127.647L120.057 141.887V209.215Z" fill="#C9C3EE"/>
<g opacity="0.2">
<path d="M120.057 209.215L95.3928 194.975V127.647L120.057 141.887V209.215Z" fill="black"/>
</g>
<path d="M120.057 209.215L153.691 189.796L153.691 122.468L120.057 141.887V209.215Z" fill="#C9C3EE"/>
<path opacity="0.3" d="M120.057 209.215L153.691 189.796L153.691 122.468L120.057 141.887V209.215Z" fill="black"/>
<path d="M137.995 136.596L134.731 138.481V133.415L137.995 131.531V136.596Z" fill="#37474F"/>
<path d="M134.731 133.416L110.067 119.176L113.331 117.291L137.995 131.531L134.731 133.416Z" fill="#455A64"/>
<path d="M101.648 193.265C100.994 192.888 100.482 191.919 100.482 191.062V187.688L102.849 189.078L103.003 189.051V189.274C103.003 189.276 103.003 189.278 103.003 189.28V192.299C103.003 192.779 102.834 193.154 102.54 193.323C102.427 193.388 102.302 193.421 102.169 193.421C102.003 193.421 101.825 193.368 101.648 193.265ZM101.91 189.631L101.738 190.814H100.862V191.062C100.862 191.773 101.309 192.631 101.838 192.937C101.977 193.016 102.179 193.092 102.35 192.994C102.523 192.894 102.624 192.64 102.624 192.299V189.503L101.91 189.631ZM101.574 189.305L102.273 189.18L100.861 188.351V190.435H101.409L101.574 189.305Z" fill="#455A64"/>
<path d="M101.742 195.827C101.847 195.827 101.932 195.742 101.932 195.637V193.101C101.932 192.996 101.847 192.911 101.742 192.911C101.638 192.911 101.553 192.996 101.553 193.101V195.637C101.553 195.742 101.638 195.827 101.742 195.827Z" fill="#455A64"/>
<path d="M102.845 196.463C102.91 196.463 102.974 196.429 103.009 196.368C103.061 196.277 103.031 196.161 102.94 196.109L100.735 194.837C100.646 194.783 100.528 194.813 100.476 194.906C100.424 194.997 100.454 195.113 100.545 195.165L102.75 196.437C102.78 196.455 102.812 196.463 102.845 196.463Z" fill="#455A64"/>
<path d="M109.451 200.383C109.525 200.383 109.596 200.365 109.659 200.329C109.803 200.246 109.886 200.08 109.886 199.873V199.353C109.886 199.248 109.801 199.163 109.696 199.163C109.591 199.163 109.506 199.248 109.506 199.353V199.873C109.506 199.95 109.485 199.991 109.47 200C109.455 200.008 109.41 200.005 109.346 199.968C109.179 199.869 108.993 199.492 108.993 199.109V195.736C108.993 195.632 108.908 195.547 108.804 195.547C108.699 195.547 108.614 195.632 108.614 195.736V199.109C108.614 199.603 108.845 200.113 109.152 200.294C109.253 200.353 109.355 200.383 109.451 200.383Z" fill="#455A64"/>
<path d="M106.405 194.52V194.41C106.405 193.62 106.681 193.026 107.183 192.736C107.683 192.446 108.338 192.504 109.023 192.899C110.361 193.672 111.45 195.559 111.45 197.105V197.434L106.405 194.52ZM107.373 193.065C107.015 193.271 106.808 193.708 106.787 194.302L111.053 196.766C110.913 195.414 109.971 193.885 108.833 193.229C108.495 193.033 108.173 192.934 107.886 192.934C107.697 192.934 107.524 192.977 107.373 193.065Z" fill="#455A64"/>
<path d="M117.082 204.64C117.187 204.64 117.272 204.555 117.272 204.45V197.991C117.272 197.886 117.187 197.801 117.082 197.801C116.977 197.801 116.892 197.886 116.892 197.991V204.45C116.892 204.555 116.977 204.64 117.082 204.64Z" fill="#455A64"/>
<path d="M117.636 199.464C117.662 199.464 117.686 199.459 117.711 199.448C117.808 199.407 117.851 199.295 117.81 199.199L117.135 197.638L116.381 198.509C116.312 198.588 116.321 198.707 116.4 198.776C116.481 198.844 116.6 198.835 116.668 198.756L117.026 198.343L117.462 199.349C117.493 199.421 117.563 199.464 117.636 199.464Z" fill="#455A64"/>
<path d="M115.326 203.639C115.431 203.639 115.516 203.554 115.516 203.45V196.99C115.516 196.885 115.431 196.8 115.326 196.8C115.221 196.8 115.136 196.885 115.136 196.99V203.45C115.136 203.554 115.221 203.639 115.326 203.639Z" fill="#455A64"/>
<path d="M115.881 198.463C115.907 198.463 115.932 198.458 115.956 198.447C116.053 198.405 116.097 198.293 116.055 198.197L115.38 196.637L114.626 197.507C114.557 197.586 114.566 197.706 114.645 197.774C114.726 197.842 114.845 197.835 114.913 197.755L115.271 197.342L115.707 198.349C115.738 198.42 115.808 198.463 115.881 198.463Z" fill="#455A64"/>
<path d="M117.814 184.024L117.815 192.385C117.815 192.707 117.589 192.838 117.31 192.677L104.256 185.14C103.977 184.979 103.751 184.588 103.751 184.265L103.751 175.899C103.751 175.577 103.977 175.446 104.256 175.607L117.31 183.149C117.589 183.31 117.814 183.702 117.814 184.024Z" fill="#FAFAFA"/>
<path d="M104.559 176.805L104.981 177.048L104.98 184.65L104.559 184.406V176.805Z" fill="#455A64"/>
<path d="M106.275 177.795L107.002 178.223L107.001 185.824L106.275 185.396V177.795Z" fill="#455A64"/>
<path d="M107.991 178.786L108.413 179.029L108.412 186.63L107.991 186.387V178.786Z" fill="#455A64"/>
<path d="M109.285 179.519L110.128 180.019V187.62L109.284 187.12L109.285 179.519Z" fill="#455A64"/>
<path d="M111.423 180.766L111.845 181.009L111.844 188.61L111.422 188.367L111.423 180.766Z" fill="#455A64"/>
<path d="M112.658 181.463L113.56 181.999L113.56 189.6L112.658 189.064V181.463Z" fill="#455A64"/>
<path d="M114.855 182.746L115.276 182.99V190.591L114.854 190.347L114.855 182.746Z" fill="#455A64"/>
<path d="M115.833 183.303L116.044 183.425L116.044 191.026L115.833 190.904L115.833 183.303Z" fill="#455A64"/>
<path d="M114.072 182.332L114.283 182.454V190.055L114.072 189.933V182.332Z" fill="#455A64"/>
<path d="M110.616 180.308L110.827 180.429L110.826 188.031L110.616 187.909V180.308Z" fill="#455A64"/>
<path d="M108.723 179.222L108.934 179.343L108.933 186.944L108.723 186.823V179.222Z" fill="#455A64"/>
<path d="M107.363 178.47L107.574 178.592V186.193L107.363 186.072V178.47Z" fill="#455A64"/>
<path d="M105.52 177.352L105.731 177.473V185.075L105.52 184.953V177.352Z" fill="#455A64"/>
<path d="M116.57 183.737L116.991 183.98V191.581L116.57 191.338V183.737Z" fill="#455A64"/>
<path opacity="0.1" d="M186.668 207.703L149.789 228.969L121.472 212.662L158.436 191.443L186.668 207.703Z" fill="black"/>
<path d="M125.754 179.743L159.388 160.325L184.052 174.564L150.418 193.983L125.754 179.743Z" fill="#C9C3EE"/>
<g opacity="0.3">
<path d="M125.754 179.743L159.388 160.325L184.052 174.564L150.418 193.983L125.754 179.743Z" fill="white"/>
</g>
<path d="M159.06 163.114L148.736 169.062C148.55 169.169 148.6 169.373 148.849 169.517L160.503 176.246C160.752 176.389 161.105 176.419 161.292 176.311L171.617 170.362C171.804 170.254 171.754 170.05 171.505 169.906L159.848 163.179C159.6 163.036 159.247 163.007 159.06 163.114Z" fill="#FAFAFA"/>
<path d="M164.274 173.235C164.348 173.235 164.419 173.196 164.459 173.128C164.518 173.026 164.483 172.896 164.381 172.837L154.706 167.251C154.604 167.191 154.473 167.227 154.414 167.329C154.355 167.431 154.39 167.561 154.492 167.62L164.168 173.206C164.201 173.225 164.238 173.235 164.274 173.235Z" fill="#E0E0E0"/>
<path d="M163.199 173.85C163.273 173.85 163.345 173.812 163.384 173.743C163.443 173.641 163.409 173.511 163.306 173.452L153.631 167.866C153.529 167.807 153.399 167.841 153.34 167.944C153.28 168.046 153.315 168.176 153.417 168.235L163.093 173.822C163.126 173.841 163.163 173.85 163.199 173.85Z" fill="#E0E0E0"/>
<path d="M162.126 174.465C162.199 174.465 162.271 174.427 162.311 174.359C162.37 174.256 162.335 174.126 162.233 174.067L152.557 168.481C152.456 168.422 152.325 168.457 152.266 168.559C152.207 168.661 152.242 168.791 152.344 168.85L162.019 174.436C162.053 174.456 162.089 174.465 162.126 174.465Z" fill="#E0E0E0"/>
<path d="M161.051 175.081C161.124 175.081 161.196 175.043 161.236 174.975C161.295 174.873 161.26 174.742 161.158 174.683L151.483 169.097C151.381 169.037 151.25 169.073 151.191 169.175C151.132 169.277 151.167 169.407 151.269 169.466L160.944 175.052C160.978 175.072 161.015 175.081 161.051 175.081Z" fill="#E0E0E0"/>
<path d="M170.642 170.092L170.266 169.875L165.858 172.42L166.234 172.637L170.642 170.092Z" fill="#455A64"/>
<path d="M169.11 169.208L168.457 168.836L164.05 171.381L164.703 171.753L169.11 169.208Z" fill="#455A64"/>
<path d="M167.579 168.323L167.202 168.106L162.795 170.651L163.171 170.868L167.579 168.323Z" fill="#455A64"/>
<path d="M166.432 167.652L165.671 167.221L161.263 169.766L162.024 170.197L166.432 167.652Z" fill="#455A64"/>
<path d="M164.516 166.554L164.139 166.337L159.732 168.882L160.108 169.099L164.516 166.554Z" fill="#455A64"/>
<path d="M163.422 165.912L162.608 165.452L158.2 167.997L159.015 168.457L163.422 165.912Z" fill="#455A64"/>
<path d="M161.453 164.785L161.076 164.568L156.669 167.112L157.045 167.329L161.453 164.785Z" fill="#455A64"/>
<path d="M160.583 164.277L160.395 164.169L155.988 166.714L156.176 166.823L160.583 164.277Z" fill="#455A64"/>
<path d="M162.129 165.201L161.941 165.092L157.534 167.637L157.722 167.746L162.129 165.201Z" fill="#455A64"/>
<path d="M165.232 166.972L165.044 166.864L160.636 169.409L160.824 169.517L165.232 166.972Z" fill="#455A64"/>
<path d="M166.918 167.95L166.729 167.842L162.322 170.386L162.51 170.495L166.918 167.95Z" fill="#455A64"/>
<path d="M168.112 168.663L167.923 168.554L163.516 171.098L163.704 171.207L168.112 168.663Z" fill="#455A64"/>
<path d="M169.789 169.594L169.601 169.486L165.194 172.031L165.381 172.139L169.789 169.594Z" fill="#455A64"/>
<path d="M159.921 163.9L159.545 163.683L155.137 166.228L155.514 166.445L159.921 163.9Z" fill="#455A64"/>
<path d="M150.418 226.743L125.754 212.503V179.742L150.418 193.982V226.743Z" fill="#C9C3EE"/>
<path d="M150.418 226.743L125.754 212.503V179.742L150.418 193.982V226.743Z" fill="#C9C3EE"/>
<path d="M150.418 226.744L184.052 207.326L184.052 174.564L150.418 193.983V226.744Z" fill="#C9C3EE"/>
<path opacity="0.1" d="M150.418 226.744L184.052 207.326L184.052 174.564L150.418 193.983V226.744Z" fill="black"/>
<path d="M168.356 188.692L165.092 190.576V185.511L168.356 183.626V188.692Z" fill="#37474F"/>
<path d="M165.092 185.511L140.428 171.271L143.692 169.386L168.356 183.626L165.092 185.511Z" fill="#455A64"/>
<path d="M180.941 204.175C180.854 204.175 180.772 204.153 180.697 204.11C180.504 203.998 180.393 203.752 180.393 203.436V201.447C180.393 201.446 180.393 201.444 180.393 201.443V201.296L180.494 201.314L182.054 200.398V202.62C182.054 203.186 181.716 203.824 181.286 204.072C181.168 204.14 181.051 204.175 180.941 204.175ZM180.643 201.594V203.436C180.643 203.66 180.708 203.828 180.823 203.893C180.936 203.958 181.069 203.908 181.16 203.856C181.509 203.654 181.804 203.089 181.804 202.62V202.458H181.226L181.112 201.678L180.643 201.594ZM181.443 202.208H181.804V200.834L180.873 201.381L181.334 201.463L181.443 202.208Z" fill="#455A64"/>
<path d="M181.223 205.76C181.154 205.76 181.097 205.704 181.097 205.635V203.964C181.097 203.895 181.154 203.839 181.223 203.839C181.292 203.839 181.348 203.894 181.348 203.964V205.635C181.348 205.704 181.292 205.76 181.223 205.76Z" fill="#455A64"/>
<path d="M180.496 206.179C180.453 206.179 180.411 206.157 180.388 206.117C180.353 206.057 180.374 205.98 180.433 205.946L181.886 205.108C181.945 205.072 182.023 205.092 182.057 205.154C182.092 205.213 182.071 205.29 182.011 205.324L180.558 206.163C180.539 206.174 180.518 206.179 180.496 206.179Z" fill="#455A64"/>
<path d="M176.144 208.761C176.095 208.761 176.049 208.75 176.007 208.726C175.912 208.671 175.858 208.562 175.858 208.425V208.082C175.858 208.013 175.914 207.957 175.983 207.957C176.052 207.957 176.108 208.013 176.108 208.082V208.425C176.108 208.477 176.123 208.504 176.133 208.509C176.143 208.515 176.172 208.512 176.214 208.488C176.324 208.423 176.447 208.174 176.447 207.922V205.701C176.447 205.632 176.503 205.575 176.572 205.575C176.641 205.575 176.697 205.632 176.697 205.701V207.922C176.697 208.248 176.545 208.584 176.342 208.703C176.275 208.742 176.207 208.761 176.144 208.761Z" fill="#455A64"/>
<path d="M174.827 206.819V206.602C174.827 205.583 175.544 204.34 176.426 203.831C176.878 203.571 177.309 203.532 177.639 203.723C177.97 203.914 178.151 204.306 178.151 204.826V204.899L174.827 206.819ZM177.175 203.854C176.987 203.854 176.774 203.919 176.552 204.048C175.803 204.48 175.182 205.488 175.089 206.378L177.9 204.755C177.886 204.364 177.749 204.076 177.514 203.94C177.413 203.882 177.3 203.854 177.175 203.854Z" fill="#455A64"/>
<path d="M171.117 211.566C171.048 211.566 170.992 211.51 170.992 211.441V207.185C170.992 207.116 171.048 207.06 171.117 207.06C171.186 207.06 171.243 207.116 171.243 207.185V211.441C171.242 211.51 171.186 211.566 171.117 211.566Z" fill="#455A64"/>
<path d="M170.752 208.156C170.735 208.156 170.719 208.153 170.702 208.146C170.638 208.118 170.61 208.045 170.637 207.981L171.082 206.954L171.578 207.527C171.624 207.579 171.618 207.658 171.566 207.703C171.512 207.748 171.435 207.742 171.389 207.691L171.154 207.418L170.866 208.081C170.846 208.128 170.8 208.156 170.752 208.156Z" fill="#455A64"/>
<path d="M172.274 210.907C172.205 210.907 172.149 210.851 172.149 210.782V206.526C172.149 206.457 172.205 206.401 172.274 206.401C172.343 206.401 172.399 206.456 172.399 206.526V210.782C172.399 210.851 172.343 210.907 172.274 210.907Z" fill="#455A64"/>
<path d="M171.908 207.497C171.891 207.497 171.875 207.494 171.858 207.486C171.794 207.459 171.765 207.385 171.793 207.322L172.238 206.294L172.734 206.867C172.78 206.919 172.774 206.998 172.722 207.043C172.668 207.088 172.591 207.083 172.545 207.03L172.31 206.758L172.022 207.421C172.002 207.469 171.956 207.497 171.908 207.497Z" fill="#455A64"/>
<path d="M153.069 213.206L153.068 221.567C153.068 221.889 153.295 222.02 153.574 221.859L166.628 214.322C166.907 214.161 167.133 213.77 167.133 213.447L167.133 205.081C167.133 204.759 166.907 204.628 166.628 204.789L153.575 212.331C153.295 212.492 153.069 212.884 153.069 213.206Z" fill="#FAFAFA"/>
<path d="M166.324 205.987L165.903 206.231V213.832L166.325 213.588L166.324 205.987Z" fill="#455A64"/>
<path d="M164.609 206.977L163.882 207.405V215.006L164.609 214.578V206.977Z" fill="#455A64"/>
<path d="M162.893 207.968L162.471 208.211V215.812L162.893 215.569V207.968Z" fill="#455A64"/>
<path d="M161.599 208.701L160.756 209.201V216.802L161.599 216.302V208.701Z" fill="#455A64"/>
<path d="M159.461 209.948L159.039 210.191L159.04 217.792L159.461 217.549V209.948Z" fill="#455A64"/>
<path d="M158.226 210.645L157.324 211.181V218.782L158.226 218.246V210.645Z" fill="#455A64"/>
<path d="M156.029 211.928L155.608 212.172L155.608 219.773L156.029 219.529V211.928Z" fill="#455A64"/>
<path d="M155.051 212.485L154.84 212.607V220.208L155.051 220.086V212.485Z" fill="#455A64"/>
<path d="M156.812 211.514L156.601 211.636L156.601 219.237L156.812 219.115V211.514Z" fill="#455A64"/>
<path d="M160.268 209.49L160.057 209.612V217.213L160.268 217.091V209.49Z" fill="#455A64"/>
<path d="M162.161 208.404L161.95 208.525V216.126L162.161 216.005V208.404Z" fill="#455A64"/>
<path d="M163.521 207.652L163.31 207.774V215.376L163.521 215.254V207.652Z" fill="#455A64"/>
<path d="M165.364 206.534L165.153 206.655L165.153 214.257L165.364 214.135V206.534Z" fill="#455A64"/>
<path d="M154.313 212.919L153.892 213.162V220.763L154.314 220.52L154.313 212.919Z" fill="#455A64"/>
<path d="M75.8531 199.963C76.033 197.034 77.604 167.505 77.604 167.505L63.2669 177.626C65.7719 194.505 66.3211 199.592 66.4282 202.408C66.4061 202.474 66.3498 202.714 66.362 203.131C66.4387 206.476 70.444 208.223 73.5844 210.409C74.8247 211.272 78.4331 213.822 82.062 215.488C84.3334 216.531 88.9057 216.563 89.4455 215.178C85.6235 212.496 81.2031 209.568 78.1455 206.487C76.686 205.016 75.6372 203.477 75.8531 199.963Z" fill="#FFA8A7"/>
<path d="M95.9415 218.687C96.1347 218.684 96.4648 220.705 95.4314 221.581C94.2385 222.592 90.7118 224.274 86.0005 223.764C81.2892 223.253 78.7174 221.907 76.808 220.437C74.8987 218.967 72.2226 216.894 70.088 216.478C68.1052 216.093 65.9441 215.272 65.3011 214.701C64.658 214.13 64.6972 211.548 64.6972 211.548L95.9415 218.687Z" fill="#263238"/>
<path d="M66.3824 201.591C66.3824 201.591 65.7929 201.606 65.6825 202.205C65.5511 202.919 65.4341 204.989 65.1454 206.16C64.7446 207.788 64.5183 211.117 64.802 212.435C65.0858 213.753 68.3232 214.626 70.3949 215.342C72.5107 216.073 74.9715 217.607 77.137 219.249C79.3781 220.948 84.058 222.619 87.1222 222.618C91.8004 222.617 94.8066 221.367 95.7118 219.756C96.8313 217.763 95.9028 216.63 90.4833 214.339C89.4571 213.906 85.8454 211.946 84.6139 211.234C81.2809 209.31 77.9645 206.611 76.3824 203.144C76.1975 202.739 76.0032 202.289 75.5898 202.088C75.2729 201.933 74.8948 201.961 74.5432 202.013C73.65 202.145 72.7795 202.41 71.9709 202.792C71.2555 203.129 70.2398 203.523 70.2718 204.402C70.2828 204.707 70.3817 205.004 70.4909 205.292C70.5588 205.47 70.614 205.708 70.4507 205.816C70.2966 205.918 70.0874 205.807 69.945 205.69C69.3731 205.219 68.9492 204.61 68.4651 204.057C68.2057 203.761 67.9236 203.478 67.599 203.245C67.3037 203.034 66.9305 202.932 66.6678 202.692C66.3344 202.387 66.4056 202.003 66.3824 201.591Z" fill="#37474F"/>
<path d="M91.3566 214.718C84.5935 215.257 82.5361 219.263 82.2955 221.727C83.984 222.268 85.7212 222.619 87.1216 222.619C91.7998 222.617 94.9981 221.367 95.9034 219.756C96.9599 217.875 96.1899 216.381 91.3566 214.718Z" fill="#FAFAFA"/>
<path d="M81.2075 214.928C81.1341 214.929 81.0595 214.907 80.9966 214.86C80.8531 214.752 80.8294 214.555 80.942 214.418C81.8638 213.308 84.5554 211.817 87.0206 212.036C87.2027 212.052 87.3374 212.206 87.3209 212.378C87.3049 212.551 87.1487 212.678 86.9621 212.662C84.6602 212.464 82.1922 213.928 81.4614 214.809C81.3979 214.885 81.3041 214.926 81.2075 214.928Z" fill="#F0F0F0"/>
<path d="M78.2609 213.354C78.1869 213.355 78.113 213.333 78.05 213.286C77.9065 213.179 77.8822 212.981 77.9948 212.845C78.9178 211.733 81.6099 210.238 84.074 210.463C84.2562 210.479 84.3909 210.632 84.3738 210.805C84.3577 210.977 84.2043 211.104 84.015 211.089C81.7137 210.887 79.2451 212.354 78.5143 213.235C78.4513 213.312 78.3569 213.353 78.2609 213.354Z" fill="#F0F0F0"/>
<path d="M75.5241 211.548C75.4501 211.549 75.3761 211.527 75.3132 211.479C75.1697 211.372 75.1454 211.174 75.258 211.038C76.1799 209.926 78.8825 208.434 81.3372 208.656C81.5199 208.671 81.654 208.825 81.6375 208.998C81.6215 209.17 81.4669 209.296 81.2787 209.282C78.9802 209.082 76.5094 210.548 75.778 211.429C75.7145 211.505 75.6201 211.546 75.5241 211.548Z" fill="#F0F0F0"/>
<path d="M72.8419 209.741C72.7702 209.742 72.6967 209.721 72.6355 209.676C72.4897 209.57 72.4627 209.372 72.5736 209.235C73.841 207.66 76.7523 206.593 79.2153 206.813C79.398 206.829 79.5322 206.983 79.515 207.156C79.499 207.328 79.3434 207.45 79.1562 207.439C76.9389 207.242 74.2236 208.222 73.0986 209.618C73.0357 209.698 72.9391 209.739 72.8419 209.741Z" fill="#F0F0F0"/>
<path d="M52.2059 176.203L37.2501 172.969C36.8559 182.228 37.0944 194.754 36.7776 203.444C36.7179 205.08 35.8701 216.133 36.3404 219.529C37.0475 224.632 43.8879 224.3 44.4531 221.297C45.0189 218.294 45.5135 205.46 45.6256 204.13C45.9435 198.562 49.1197 189.205 51.3481 179.296C51.458 178.809 52.1016 176.678 52.2059 176.203Z" fill="#FFA8A7"/>
<path d="M46.8709 223.531C46.8113 226.506 46.379 228.492 45.2651 230.277C44.1512 232.061 41.9244 232.691 39.6203 232.266C37.3163 231.841 34.3327 230.588 33.5616 228.052C32.7904 225.517 32.8418 223.758 33.2337 220.987L46.8709 223.531Z" fill="#263238"/>
<path d="M36.8101 202.382C35.8734 202.482 35.779 206.476 35.4202 210.485C35.036 214.783 33.6692 216.605 33.3115 220.129C32.9025 224.157 33.2232 225.937 34.9256 228.299C36.6274 230.663 42.3699 232.829 44.9869 229.258C47.1204 226.346 47.0696 223.207 46.6799 219.216C46.2769 215.09 45.9562 212.188 46.0037 209.043C46.0489 206.038 46.5673 203.239 45.7354 202.936C45.6929 203.378 45.6576 203.94 45.6106 204.375C45.5748 204.709 45.5554 206.335 45.0294 206.371C44.9632 205.99 44.956 205.632 44.967 205.241C44.977 204.901 44.9273 204.533 44.6651 204.284C44.4007 204.032 43.5699 203.848 43.1863 203.795C42.2539 203.668 41.3172 203.558 40.3744 203.518C39.9046 203.498 39.4343 203.495 38.9646 203.518C38.5837 203.536 38.136 203.581 37.7805 203.712C37.5625 203.793 37.3638 203.94 37.2904 204.138C37.2363 204.285 37.255 204.443 37.2622 204.597C37.2749 204.874 37.2478 205.152 37.1822 205.423C37.1529 205.543 37.0673 205.691 36.9316 205.667C36.8212 205.648 36.7726 205.529 36.7676 205.431C36.7417 204.948 36.7952 204.593 36.7947 204.03C36.7947 203.77 36.8261 203.414 36.8184 203.153C36.8118 202.895 36.8024 202.639 36.8101 202.382Z" fill="#37474F"/>
<path d="M33.1575 222.459C33.1095 224.952 33.3485 226.65 34.681 228.499C36.3834 230.862 42.5796 233.02 45.1961 229.449C46.4983 227.672 46.7748 225.618 46.8692 223.529C45.0829 220.918 35.6774 220.087 33.1575 222.459Z" fill="#FAFAFA"/>
<path d="M44.2588 219.264C44.2196 219.262 44.1804 219.254 44.1418 219.24C44.1031 219.226 40.1955 217.782 36.0031 218.803C35.8176 218.845 35.6261 218.752 35.5742 218.588C35.5234 218.424 35.6332 218.254 35.8193 218.209C40.254 217.132 44.2489 218.611 44.4178 218.674C44.595 218.741 44.6767 218.922 44.601 219.078C44.5409 219.2 44.4018 219.271 44.2588 219.264Z" fill="#F0F0F0"/>
<path d="M36.0942 215.809C35.9622 215.803 35.8397 215.729 35.7889 215.613C35.7205 215.454 35.8099 215.276 35.9893 215.215C40.1442 213.8 44.3935 215.534 44.5734 215.61C44.7479 215.682 44.8224 215.865 44.739 216.019C44.6562 216.172 44.4454 216.235 44.2748 216.166C44.2345 216.149 40.1066 214.469 36.2404 215.789C36.1924 215.806 36.1433 215.812 36.0942 215.809Z" fill="#F0F0F0"/>
<path d="M36.2062 212.985C36.0765 212.979 35.9562 212.907 35.9043 212.794C35.8314 212.636 35.9175 212.457 36.0958 212.394C40.662 210.758 44.6822 212.677 44.8505 212.758C45.0189 212.841 45.0802 213.028 44.9869 213.176C44.8936 213.325 44.6772 213.38 44.5127 213.297C44.4752 213.278 40.6084 211.442 36.358 212.963C36.3083 212.981 36.2565 212.988 36.2062 212.985Z" fill="#F0F0F0"/>
<path d="M36.347 209.812C36.2195 209.806 36.1002 209.737 36.0467 209.625C35.9716 209.469 36.0544 209.289 36.2322 209.222C40.5085 207.628 44.8699 209.585 45.0531 209.671C45.2242 209.748 45.2894 209.935 45.2 210.086C45.1116 210.237 44.9019 210.298 44.7297 210.216C44.6872 210.197 40.4737 208.307 36.5032 209.789C36.4519 209.807 36.3989 209.815 36.347 209.812Z" fill="#EBEBEB"/>
<path d="M43.5324 100.356C43.178 117.202 40.1668 154.621 40.1668 154.621C39.9124 156.69 36.9172 165.49 36.8074 172.972C36.6346 184.716 36.384 193.61 36.384 193.61C36.384 193.61 42.9439 196.207 47.7623 194.409C47.7623 194.409 54.0309 169.45 55.7879 161.66C57.8805 152.382 63.1063 135.128 63.1063 135.128L62.7254 159.652C62.7254 159.652 61.6788 167.216 62.5283 174.477C63.1074 179.424 65.094 193.197 65.094 193.197C65.094 193.197 71.1318 194.413 76.3642 192.863C76.3642 192.863 79.5161 163.288 79.7756 158.736C80.0715 153.548 81.6745 101.366 81.6745 101.366L43.5324 100.356Z" fill="#455A64"/>
<path d="M63.1063 135.128L65.4506 119.495C65.4506 119.495 71.1749 119.268 75.0974 115.598C75.0974 115.598 74.6089 119.263 67.4505 121.474L64.7408 134.658L62.641 159.193L63.1063 135.128Z" fill="#37474F"/>
<path d="M73.3249 51.2383C76.3653 51.0788 82.0294 50.8856 86.0993 55.8966C88.9598 59.4189 96.7612 67.8921 101.182 73.4855C104.145 70.4015 111.33 62.9274 112.507 60.7432C113.975 58.1703 114.74 55.635 115.19 54.3091C115.766 52.615 115.978 51.2974 116.134 50.2977C116.506 47.9164 116.24 46.1406 116.22 45.2695C116.184 43.7493 118.443 44.5293 119.308 46.9432C119.94 48.7074 119.889 49.9924 119.969 51.0732C120.806 50.6719 123.237 49.478 123.617 49.3019C124.939 48.6886 129.144 47.2114 129.546 49.5806C129.635 50.1111 129.468 50.6902 129.7 51.1759C129.811 51.4078 130.001 51.5899 130.159 51.7919C130.757 52.552 130.889 53.6522 130.488 54.5332C130.292 54.9643 130.2 55.3093 130.259 55.7884C130.313 56.2372 130.444 56.7025 130.316 57.1513C130.214 57.5101 129.957 57.801 129.785 58.1322C129.562 58.5611 129.485 59.0491 129.42 59.5282C129.355 60.0074 129.296 60.4953 129.101 60.938C128.64 61.9896 127.37 62.2292 126.394 62.5797C125.096 63.0461 123.359 63.6528 122.01 64.308C119.666 65.8536 113.349 77.2794 106.952 84.6017C104.76 87.11 102.794 88.6799 100.715 88.405L100.734 88.3984C99.052 88.3603 96.9715 86.8329 94.9661 85.1013C88.5899 79.5951 78.3525 68.7748 78.3525 68.7748C74.0376 63.5849 72.8364 54.7153 73.3249 51.2383Z" fill="#FFA8A7"/>
<path d="M76.149 50.3855C78.1693 50.7001 79.5587 50.6416 82.1304 52.1005C84.3942 53.3856 85.2084 54.4691 87.8304 57.4025C90.4518 60.3358 96.7187 67.9517 96.7187 67.9517C96.7187 67.9517 94.0487 74.3262 85.7907 76.6413L76.6529 67.7724L76.149 50.3855Z" fill="white"/>
<path d="M121.661 51.2946C120.36 51.7544 120.026 52.637 120.123 54.5271C120.181 55.6477 119.914 57.7298 118.725 58.5992C118.725 58.5992 119.733 58.4711 120.289 57.8601C120.846 57.2496 121.001 57.1778 121.331 57.5051C121.661 57.8325 122.187 57.9622 122.187 57.9622C122.187 57.9622 121.492 58.7504 122.109 59.701C122.726 60.6521 125.352 60.5897 127.467 59.4073C127.467 59.4073 124.01 60.6068 123.164 59.5227C122.32 58.4386 124.125 56.9874 125.489 56.5667C125.489 56.5667 122.144 57.4786 121.593 56.389C121.043 55.2993 122.408 54.4167 124.378 53.8465C124.378 53.8465 121.606 54.4415 121.098 53.5109C120.482 52.3782 121.306 51.6854 121.661 51.2946Z" fill="#F28F8F"/>
<path d="M45.1243 52.1149C45.1243 52.1149 41.8858 54.9637 41.0583 58.0428C40.6515 59.5564 40.2767 60.8199 41.5579 69.2191C42.7811 77.2397 42.7767 79.6453 43.0543 85.8917L43.3728 102.647C48.1714 108.267 71.4525 111.322 82.657 103.752C82.657 103.752 82.7211 74.7077 81.9289 65.1321C81.3907 58.6285 79.3975 52.5245 77.1613 50.5273C74.1159 49.9985 71.1865 49.6447 71.1865 49.6447L59.9814 48.9928L45.1243 52.1149Z" fill="#B5B5B5"/>
<path d="M76.8229 28.8254C78.3156 25.4019 76.8539 20.8628 75.0709 18.7305C72.4925 15.6481 68.48 14.3189 62.4312 14.6942C57.8319 14.9796 53.3077 16.8901 52.4466 21.6108C48.7493 22.7137 49.1711 28.7851 50.0901 31.4629C51.9564 36.8979 55.6256 41.6274 55.6885 44.4067L76.8229 28.8254Z" fill="#37474F"/>
<path d="M76.8202 41.6109C76.0938 44.2345 74.5735 46.1577 72.1486 46.5369C70.698 46.7665 68.3166 46.5579 68.3166 46.5579L68.4121 49.8986C71.6772 52.6934 70.4799 56.3636 68.3017 59.6717C65.5958 56.6628 62.498 55.5903 59.7943 54.399C57.0967 53.2139 55.8492 50.5786 55.8492 50.5786L55.5036 39.2969C55.5036 39.2969 54.0182 40.9832 51.5701 39.3891C49.8931 38.2889 48.687 35.4577 49.9091 32.8512C51.1207 30.291 53.5506 31.3503 54.2997 32.1264C55.0432 32.9031 55.9176 34.367 56.5397 34.1627C57.4875 33.847 57.8016 33.253 58.0456 32.6254C58.48 31.5275 58.7924 30.1105 58.8382 27.664C59.515 27.3201 60.1652 26.8272 60.7371 26.1985C61.7804 25.0404 62.3407 23.6637 62.3859 22.4024C67.6299 20.7602 73.6611 21.5335 75.8409 23.2199C77.0956 25.429 77.1409 30.5664 77.3484 33.5246C77.5748 36.7367 77.4307 39.4156 76.8202 41.6109Z" fill="#FFA8A7"/>
<path d="M68.3166 46.5557C65.6328 46.4044 60.2359 45.1514 58.7979 43.6533C57.36 42.1551 56.7489 39.091 56.7489 39.091C56.7489 39.091 56.9647 42.9622 58.0759 44.6701C59.1871 46.3779 61.9957 47.1231 63.7003 47.5465C65.4048 47.9705 68.3669 48.2547 68.3669 48.2547L68.3166 46.5557Z" fill="#F28F8F"/>
<path d="M68.3017 59.674C66.8974 58.8117 63.7974 55.2927 62.2562 56.9277C60.7145 58.5628 59.8887 59.0121 58.8703 58.7091C57.8524 58.406 55.6046 56.1864 54.1346 54.5641C52.6647 52.9418 52.2015 50.6107 52.2015 50.6107C52.2015 50.6107 53.624 48.8846 54.2721 47.7325C54.9698 46.4927 54.8219 46.1444 55.7128 46.0832L55.7928 48.4187C55.7928 48.4187 56.362 49.6927 58.8829 51.4149C61.4045 53.1366 66.4867 55.7034 68.3017 59.674Z" fill="white"/>
<path d="M68.3017 59.674C69.1375 58.9111 70.497 55.3468 70.8608 55.4539C71.3968 55.6112 72.3556 58.0632 72.8176 57.4936C73.5529 56.5883 73.3293 52.4555 72.1083 50.9529C70.9337 49.5078 69.2628 47.8545 68.3498 47.6956L68.4143 49.8997C68.4143 49.8997 69.3307 51.6843 69.3191 53.4535C69.3108 54.7043 68.4751 58.4739 68.3017 59.674Z" fill="white"/>
<path d="M66.6192 31.8079C66.6209 32.4305 66.1368 32.9351 65.5379 32.9351C64.9384 32.9356 64.4515 32.4311 64.4493 31.8084C64.4477 31.1858 64.9312 30.6813 65.5307 30.6807C66.1302 30.6813 66.6176 31.1858 66.6192 31.8079Z" fill="#263238"/>
<path d="M65.1007 28.3386L62.9037 29.8218C62.503 29.1887 62.6702 28.3424 63.2769 27.9334C63.8841 27.5233 64.7005 27.7049 65.1007 28.3386Z" fill="#263238"/>
<path d="M75.629 29.3559L73.2195 28.2039C73.5148 27.5211 74.2942 27.2257 74.9594 27.5437C75.6251 27.8616 75.9248 28.6731 75.629 29.3559Z" fill="#263238"/>
<path d="M74.8175 31.7406C74.8197 32.3627 74.3356 32.8677 73.7362 32.8677C73.1372 32.8677 72.6498 32.3638 72.6482 31.7411C72.6459 31.119 73.1306 30.6139 73.7295 30.6139C74.3284 30.6134 74.8159 31.1179 74.8175 31.7406Z" fill="#263238"/>
<path d="M69.1115 29.474L69.8959 37.2744L74.0817 36.0114L69.1115 29.474Z" fill="#F28F8F"/>
<path d="M66.6132 39.0915L71.1031 40.0851C70.8553 41.3669 69.6486 42.1838 68.4083 41.9095C67.1685 41.6352 66.3648 40.3733 66.6132 39.0915Z" fill="#B16668"/>
<path d="M68.4083 41.9095C68.5027 41.9305 68.5959 41.9332 68.6892 41.9415C68.6605 40.8083 67.7343 39.9057 66.6016 39.9057C66.7401 40.869 67.4356 41.6942 68.4083 41.9095Z" fill="#F28F8F"/>
<path d="M104.638 77.0172L75.2961 82.7553L64.4697 118.013L92.4147 111.815L104.638 77.0172Z" fill="#263238"/>
<path opacity="0.15" d="M80.1703 103.557C79.982 104.503 78.8052 107.558 75.4176 108.45C71.5629 109.464 67.5488 107.988 67.5488 107.988L68.4541 105.04L80.1703 103.557Z" fill="black"/>
<path opacity="0.15" d="M95.857 81.6574C95.857 81.6574 95.9956 81.1716 96.1661 80.5721C96.3367 79.9727 94.6454 79.8374 92.3882 80.2702L88.0666 81.0982C85.8095 81.531 83.8411 82.3672 83.6705 82.9667L83.3614 84.0519L95.857 81.6574Z" fill="black"/>
<path d="M98.1246 77.6355C98.2328 77.2612 97.5533 77.1172 96.6072 77.3142L94.8938 77.6703C94.8938 77.6703 95.5495 75.3232 91.7601 75.9138C87.9711 76.5044 86.9798 79.154 86.9798 79.154C86.9798 79.154 86.1606 79.3307 85.1499 79.5487C84.1392 79.7668 83.2052 80.2437 83.0633 80.6146L82.8066 81.2853L97.9209 78.331C97.9209 78.331 98.0164 78.0097 98.1246 77.6355Z" fill="#B5B5B5"/>
<path opacity="0.3" d="M98.1246 77.6355C98.2328 77.2612 97.5533 77.1172 96.6072 77.3142L94.8938 77.6703C94.8938 77.6703 95.5495 75.3232 91.7601 75.9138C87.9711 76.5044 86.9798 79.154 86.9798 79.154C86.9798 79.154 86.1606 79.3307 85.1499 79.5487C84.1392 79.7668 83.2052 80.2437 83.0633 80.6146L82.8066 81.2853L97.9209 78.331C97.9209 78.331 98.0164 78.0097 98.1246 77.6355Z" fill="black"/>
<path d="M83.8427 83.0821C83.9841 82.5842 85.374 81.9251 87.1332 81.4675C87.1503 81.4051 87.168 81.3427 87.1807 81.293C87.3165 80.7714 87.1128 80.4391 86.0485 80.6483L85.9867 80.2233L96.4631 78.2637L96.0011 78.6915C94.6178 78.9321 94.0404 79.0768 93.7765 80.0002C93.7544 80.0764 93.7401 80.1383 93.7197 80.2117C95.363 80.024 96.478 80.1973 96.3389 80.6875C96.1678 81.287 96.0298 81.7727 96.0298 81.7727L83.5336 84.1673L83.8427 83.0821Z" fill="#B5B5B5"/>
<path opacity="0.4" d="M83.8427 83.0821C83.9841 82.5842 85.374 81.9251 87.1332 81.4675C87.1503 81.4051 87.168 81.3427 87.1807 81.293C87.3165 80.7714 87.1128 80.4391 86.0485 80.6483L85.9867 80.2233L96.4631 78.2637L96.0011 78.6915C94.6178 78.9321 94.0404 79.0768 93.7765 80.0002C93.7544 80.0764 93.7401 80.1383 93.7197 80.2117C95.363 80.024 96.478 80.1973 96.3389 80.6875C96.1678 81.287 96.0298 81.7727 96.0298 81.7727L83.5336 84.1673L83.8427 83.0821Z" fill="black"/>
<path d="M70.7642 97.5147C74.3566 98.7191 77.9452 98.8063 81.6745 98.8003C82.5858 98.7986 83.2764 98.9383 83.5452 99.8082C83.6407 100.117 83.7666 100.544 82.588 100.892C82.2784 100.983 81.8484 101.094 81.6745 101.366C81.4012 101.794 81.537 102.224 81.4664 102.726C81.3626 103.466 80.8454 104.072 80.3497 104.632C79.79 105.264 79.2203 105.904 78.506 106.354C76.2334 107.784 72.7282 107.96 70.1388 107.541C68.3818 107.257 66.6358 106.629 64.9732 106.015C63.3928 105.431 53.7709 102.595 52.6277 102.196C44.1335 99.2325 32.4504 95.5976 31.7648 91.5724C31.0787 87.5466 33.2365 75.0013 34.7826 64.7755C36.0313 56.5176 39.3797 53.5733 44.8081 52.44C50.7547 59.1948 46.9962 70.9039 46.9962 70.9039L44.8329 86.5017C45.747 87.2646 59.6469 95.0665 62.0476 95.8438C62.9175 96.1253 64.5492 95.7819 65.4148 95.4866C67.7376 94.6939 69.329 94.7591 71.5784 94.8618" fill="#FFA8A7"/>
<path d="M45.1243 52.1149C39.3598 52.9059 35.9479 55.858 34.7826 61.442C33.8034 66.1335 31.9867 81.2848 31.9867 81.2848C35.8204 84.6658 42.1088 84.483 45.5107 83.3018L47.2689 71.1302C48.6825 68.0158 50.9016 58.7273 45.1243 52.1149Z" fill="white"/>
<path d="M41.4243 101.339L38.513 102.947C38.1592 103.143 37.8617 103.629 37.8501 104.033C37.7767 106.643 37.5669 115.599 37.9842 120.506C38.0185 120.909 38.3386 121.397 38.6913 121.595C40.354 122.528 44.839 124.988 46.8979 125.559C47.2876 125.667 47.9219 125.556 48.2972 125.406L50.3722 124.573C50.7476 124.422 51.0468 123.971 51.0484 123.567C51.0677 118.358 51.968 112.632 52.8325 106.957C52.8932 106.557 52.647 106.091 52.2832 105.915L42.7243 101.303C42.3605 101.127 41.7781 101.144 41.4243 101.339Z" fill="white"/>
<path d="M37.9848 120.505C37.5675 115.599 37.7772 106.644 37.8506 104.034C37.8622 103.63 38.1664 103.447 38.5279 103.627L47.424 108.048C47.7861 108.228 48.0505 108.701 48.0174 109.104C47.8286 111.418 47.2932 118.805 47.5796 124.947C47.5984 125.351 47.2871 125.667 46.8979 125.558C44.8384 124.987 40.3551 122.528 38.6919 121.595C38.3397 121.397 38.019 120.908 37.9848 120.505Z" fill="#37474F"/>
<path d="M47.0078 125.577C47.398 125.652 47.9589 125.539 48.2989 125.404L50.3744 124.569C50.7509 124.425 51.0153 123.968 51.0456 123.566C51.4514 118.215 51.9658 112.631 52.8336 106.957C52.8639 106.765 52.8214 106.569 52.7276 106.389L47.9119 108.585C47.9903 108.751 48.0328 108.933 48.0163 109.102C47.8264 111.422 47.2915 118.808 47.5813 124.951C47.5995 125.316 47.3456 125.61 47.0078 125.577Z" fill="#263238"/>
<path d="M39.5795 105.884L46.1113 109.044L45.7636 114.361L39.3968 111.558C39.3968 111.558 39.4421 108.135 39.5795 105.884Z" fill="#263238"/>
<path d="M45.7901 113.955L39.7606 111.301C39.7606 111.301 39.8009 108.281 39.9195 106.047L46.1113 109.043L45.7901 113.955Z" fill="#B5B5B5"/>
<path opacity="0.4" d="M45.7901 113.955L39.7606 111.301C39.7606 111.301 39.8009 108.281 39.9195 106.047L46.1113 109.043L45.7901 113.955Z" fill="black"/>
<path d="M48.8537 105.546L47.2302 106.323L41.3785 103.459L42.955 102.667L48.8537 105.546Z" fill="#263238"/>
<path d="M48.6102 105.663L47.2302 106.323L41.6236 103.578L42.9627 102.906L48.6102 105.663Z" fill="#B5B5B5"/>
<path opacity="0.4" d="M48.6102 105.663L47.2302 106.323L41.6236 103.578L42.9627 102.906L48.6102 105.663Z" fill="black"/>
<path opacity="0.4" d="M47.7767 105.256L46.384 105.909L46.2063 105.822L47.5918 105.165L47.7767 105.256Z" fill="black"/>
<path opacity="0.4" d="M46.5264 104.643L45.1509 105.303L44.9494 105.207L46.341 104.553L46.5264 104.643Z" fill="black"/>
<path opacity="0.4" d="M45.2883 104.041L43.9 104.695L43.7223 104.608L45.1028 103.95L45.2883 104.041Z" fill="black"/>
<path opacity="0.4" d="M44.155 103.488L42.7679 104.139L42.5901 104.052L43.9701 103.398L44.155 103.488Z" fill="black"/>
<path d="M46.0462 116.177L46.0004 116.832C45.986 117.034 45.8232 117.136 45.6361 117.059L44.4548 116.574C44.2677 116.497 44.1258 116.272 44.1374 116.07L44.1766 115.398C44.1882 115.196 44.3493 115.095 44.5359 115.173L45.7338 115.671C45.9203 115.749 46.0605 115.975 46.0462 116.177Z" fill="#263238"/>
<path d="M46.0572 118.314L46.0213 118.97C46.0103 119.172 45.8491 119.276 45.6609 119.202L44.473 118.736C44.2848 118.662 44.1396 118.439 44.1479 118.237L44.1766 117.565C44.1854 117.363 44.3444 117.26 44.5326 117.335L45.7371 117.814C45.9248 117.888 46.0683 118.112 46.0572 118.314Z" fill="#263238"/>
<path d="M46.0683 120.451L46.0423 121.108C46.0346 121.31 45.8745 121.416 45.6852 121.345L44.4907 120.897C44.3013 120.826 44.1523 120.605 44.1578 120.403L44.176 119.73C44.1815 119.528 44.3394 119.423 44.5282 119.495L45.7398 119.956C45.9292 120.027 46.076 120.249 46.0683 120.451Z" fill="#263238"/>
<path d="M46.0793 122.588L46.0639 123.246C46.0589 123.448 45.901 123.556 45.7106 123.488L44.5083 123.058C44.3179 122.991 44.1655 122.771 44.1677 122.569L44.176 121.896C44.1782 121.694 44.3344 121.586 44.5243 121.655L45.7437 122.097C45.9336 122.166 46.0837 122.386 46.0793 122.588Z" fill="#263238"/>
<path d="M43.4017 114.971L43.3664 115.655C43.3559 115.857 43.1964 115.958 43.0093 115.881L41.8363 115.395C41.6491 115.318 41.5045 115.091 41.5128 114.889L41.541 114.189C41.5492 113.987 41.7066 113.887 41.8931 113.965L43.0827 114.464C43.2693 114.542 43.4122 114.769 43.4017 114.971Z" fill="#263238"/>
<path d="M43.3922 117.093L43.3602 117.777C43.3508 117.979 43.1912 118.081 43.0041 118.004L41.8284 117.524C41.6412 117.447 41.4955 117.222 41.5027 117.02L41.5275 116.32C41.5347 116.118 41.692 116.017 41.8786 116.094L43.0704 116.587C43.258 116.665 43.4021 116.892 43.3922 117.093Z" fill="#263238"/>
<path d="M43.3833 119.215L43.3546 119.9C43.3464 120.102 43.1874 120.204 42.9997 120.129L41.8223 119.654C41.6346 119.579 41.4878 119.353 41.4938 119.151L41.5154 118.451C41.5215 118.249 41.6782 118.147 41.8653 118.223L43.0599 118.711C43.247 118.788 43.3916 119.013 43.3833 119.215Z" fill="#263238"/>
<path d="M43.3745 121.337L43.3491 122.022C43.3414 122.224 43.183 122.327 42.9953 122.253L41.8151 121.783C41.6274 121.709 41.4795 121.484 41.4845 121.282L41.5027 120.582C41.5076 120.38 41.6644 120.277 41.8515 120.353L43.0483 120.835C43.236 120.911 43.3817 121.135 43.3745 121.337Z" fill="#263238"/>
<path d="M40.7564 113.765L40.7326 114.477C40.726 114.679 40.5692 114.78 40.3827 114.702L39.2174 114.215C39.0308 114.137 38.8834 113.91 38.8879 113.708L38.9044 112.979C38.9088 112.777 39.0639 112.678 39.25 112.756L40.4318 113.256C40.6178 113.336 40.763 113.563 40.7564 113.765Z" fill="#263238"/>
<path d="M40.7641 115.829L40.7404 116.541C40.7337 116.743 40.577 116.843 40.3904 116.766L39.2246 116.279C39.038 116.201 38.8906 115.974 38.895 115.772L38.9116 115.043C38.916 114.841 39.0706 114.741 39.2571 114.82L40.439 115.321C40.625 115.399 40.7707 115.627 40.7641 115.829Z" fill="#263238"/>
<path d="M40.7713 117.893L40.7475 118.605C40.7409 118.808 40.5842 118.908 40.3976 118.83L39.2323 118.343C39.0457 118.265 38.8983 118.039 38.9028 117.836L38.9193 117.107C38.9237 116.905 39.0789 116.805 39.2649 116.884L40.4467 117.384C40.6327 117.463 40.7779 117.691 40.7713 117.893Z" fill="#263238"/>
<path d="M40.779 119.957L40.7553 120.669C40.7486 120.871 40.5919 120.972 40.4053 120.894L39.24 120.407C39.0534 120.329 38.9061 120.103 38.9105 119.9L38.927 119.171C38.9315 118.969 39.086 118.869 39.2726 118.948L40.4544 119.448C40.6405 119.528 40.7856 119.755 40.779 119.957Z" fill="#263238"/>
<path d="M158.99 49.1749L152.164 53.1278L154.876 59.223C154.935 59.356 155.027 59.4521 155.135 59.5133C155.459 59.6972 157.374 60.8061 157.48 60.8674C157.804 61.0551 158.272 60.9226 158.396 60.5025L161.34 50.5312L158.99 49.1749Z" fill="#B5B5B5"/>
<path opacity="0.15" d="M158.99 49.1749L152.164 53.1278L154.876 59.223C154.935 59.356 155.027 59.4521 155.135 59.5133C155.459 59.6972 157.374 60.8061 157.48 60.8674C157.804 61.0551 158.272 60.9226 158.396 60.5025L161.34 50.5312L158.99 49.1749Z" fill="black"/>
<path d="M154.513 54.4846L157.225 60.5798C157.461 61.1108 158.231 61.06 158.396 60.5025L161.34 50.5312L154.513 54.4846Z" fill="#B5B5B5"/>
<path d="M167.585 10.7757L141.841 25.6383C141.514 25.8265 141.25 26.2853 141.25 26.6617V58.6087C141.25 58.9857 141.516 59.4411 141.844 59.6266L143.961 60.8134C144.29 60.9983 144.82 60.9961 145.146 60.8079L170.891 45.9453C171.217 45.7571 171.482 45.2983 171.482 44.9219V12.9749C171.482 12.5979 171.216 12.1425 170.887 11.957L168.77 10.7702C168.443 10.5847 167.911 10.5875 167.585 10.7757Z" fill="#B5B5B5"/>
<path opacity="0.5" d="M171.474 12.8671C171.427 12.5696 171.185 12.4631 170.89 12.6325L145.147 27.4962C144.983 27.5917 144.836 27.7529 144.729 27.9384L141.435 26.0588C141.541 25.8816 141.683 25.7287 141.841 25.6387L167.587 10.775C167.911 10.5868 168.441 10.584 168.771 10.7695L170.887 11.9558C171.185 12.1247 171.432 12.5155 171.474 12.8671Z" fill="white"/>
<path d="M144.555 60.4666V28.5196C144.555 28.1426 144.819 27.6845 145.146 27.4962L170.89 12.6336C171.217 12.4454 171.481 12.5977 171.481 12.9748V44.9218C171.481 45.2988 171.217 45.7569 170.89 45.9452L145.146 60.8078C144.819 60.9965 144.555 60.8436 144.555 60.4666Z" fill="#B5B5B5"/>
<path opacity="0.15" d="M145.146 60.8078C144.831 60.9905 144.256 60.9966 143.959 60.8144L141.844 59.6254C141.516 59.4427 141.249 58.9867 141.249 58.6103V26.6622C141.249 26.4656 141.323 26.2498 141.437 26.0588L144.729 27.9384C144.62 28.1211 144.554 28.3314 144.554 28.5196V60.4655C144.555 60.8105 144.798 61.0093 145.146 60.8078Z" fill="black"/>
<path d="M147.312 37.4173C147.26 37.4173 147.21 37.4041 147.163 37.3776C147.072 37.3246 147.015 37.2269 147.015 37.1209V31.5578C147.015 31.4519 147.071 31.3542 147.163 31.3012L151.981 28.5202C152.072 28.4672 152.185 28.4672 152.277 28.5202C152.369 28.5732 152.425 28.6709 152.425 28.7769L152.426 34.3388C152.426 34.4448 152.37 34.5425 152.277 34.5955L147.46 37.377C147.414 37.4035 147.362 37.4173 147.312 37.4173ZM147.608 31.729V36.607L151.833 34.1682L151.833 29.2908L147.608 31.729Z" fill="#FAFAFA"/>
<path d="M152.694 27.382C152.396 27.2578 152.053 27.3974 151.929 27.6938L149.72 32.9483L149.194 32.4366C148.964 32.2125 148.593 32.2175 148.368 32.4488C148.144 32.6795 148.15 33.0505 148.38 33.2746L149.52 34.383C149.63 34.4895 149.774 34.548 149.927 34.548C149.966 34.548 150.004 34.5442 150.044 34.5364C150.233 34.4978 150.391 34.3681 150.466 34.1903L153.006 28.1465C153.13 27.8501 152.991 27.5067 152.694 27.382Z" fill="#455A64"/>
<path d="M156.223 28.3557L168.51 21.2608C168.936 21.0152 169.28 21.1918 169.28 21.655C169.28 22.1181 168.935 22.6927 168.51 22.9384L156.223 30.0327C155.798 30.2783 155.453 30.1022 155.453 29.6391C155.453 29.176 155.798 28.6019 156.223 28.3557Z" fill="#455A64"/>
<path d="M147.311 45.7608C147.26 45.7608 147.208 45.7475 147.163 45.7211C147.071 45.6681 147.014 45.5704 147.014 45.4644V39.9019C147.014 39.7959 147.07 39.6982 147.163 39.6452L151.981 36.8637C152.072 36.8107 152.185 36.8107 152.277 36.8637C152.369 36.9166 152.425 37.0144 152.425 37.1203V42.6828C152.425 42.7888 152.369 42.8865 152.277 42.9395L147.459 45.7205C147.413 45.747 147.362 45.7608 147.311 45.7608ZM147.608 40.073V44.9505L151.833 42.5123V37.6343L147.608 40.073Z" fill="#FAFAFA"/>
<path d="M152.694 35.726C152.396 35.6012 152.053 35.7414 151.929 36.0379L149.72 41.2924L149.194 40.7807C148.964 40.5565 148.593 40.5615 148.368 40.7928C148.144 41.0235 148.15 41.3939 148.38 41.6186L149.52 42.7265C149.63 42.833 149.774 42.8915 149.927 42.8915C149.966 42.8915 150.004 42.8876 150.044 42.8799C150.233 42.8413 150.391 42.7116 150.466 42.5338L153.006 36.49C153.13 36.1935 152.991 35.8507 152.694 35.726Z" fill="#455A64"/>
<path d="M156.223 36.6738L168.51 29.5789C168.936 29.3333 169.28 29.5099 169.28 29.973C169.28 30.4362 168.935 31.0108 168.51 31.2565L156.223 38.3508C155.798 38.5964 155.453 38.4203 155.453 37.9572C155.453 37.4941 155.798 36.9194 156.223 36.6738Z" fill="#455A64"/>
<path d="M147.311 54.1048C147.26 54.1048 147.208 54.091 147.163 54.0645C147.071 54.0115 147.014 53.9138 147.014 53.8079V48.2454C147.014 48.1394 147.07 48.0417 147.163 47.9887L151.981 45.2077C152.072 45.1547 152.185 45.1547 152.277 45.2077C152.369 45.2607 152.425 45.3584 152.425 45.4644V51.0269C152.425 51.1329 152.369 51.2306 152.277 51.2836L147.459 54.0651C147.413 54.091 147.362 54.1048 147.311 54.1048ZM147.608 48.4165V53.2945L151.833 50.8558V45.9783L147.608 48.4165Z" fill="#FAFAFA"/>
<path d="M152.694 44.0695C152.396 43.9447 152.053 44.0849 151.929 44.3813L149.72 49.6358L149.194 49.1241C148.964 48.9 148.593 48.905 148.368 49.1363C148.144 49.367 148.15 49.738 148.38 49.9621L149.52 51.0705C149.63 51.177 149.774 51.2355 149.927 51.2355C149.966 51.2355 150.004 51.2317 150.044 51.2239C150.233 51.1853 150.391 51.0556 150.466 50.8778L153.006 44.834C153.13 44.5376 152.991 44.1942 152.694 44.0695Z" fill="#455A64"/>
<path d="M156.223 44.9919L168.51 37.897C168.936 37.6514 169.28 37.828 169.28 38.2911C169.28 38.7543 168.935 39.3289 168.51 39.5745L156.223 46.6688C155.798 46.9145 155.453 46.7384 155.453 46.2753C155.453 45.8121 155.798 45.2375 156.223 44.9919Z" fill="#455A64"/>
</svg>
